<svg xmlns="http://www.w3.org/2000/svg" width="163.034" height="163.034" viewBox="0 0 163.034 163.034"><circle cx="6.05" cy="6.05" r="6.05" transform="translate(116.92 61.03)" fill="#707070"/><path d="M137.56,12.737h-8.279V6.369a6.369,6.369,0,0,0-12.737,0v6.369H87.567V6.369a6.369,6.369,0,0,0-12.737,0v6.369H46.172V6.369a6.369,6.369,0,1,0-12.737,0v6.369H25.474A25.5,25.5,0,0,0,0,38.211V137.56a25.5,25.5,0,0,0,25.474,25.474H74.193a6.368,6.368,0,1,0,0-12.737H25.474A12.751,12.751,0,0,1,12.737,137.56V38.211A12.751,12.751,0,0,1,25.474,25.474h7.961v6.369a6.369,6.369,0,1,0,12.737,0V25.474H74.83v6.369a6.369,6.369,0,0,0,12.737,0V25.474h28.977v6.369a6.369,6.369,0,0,0,12.737,0V25.474h8.279A12.751,12.751,0,0,1,150.3,38.211v36.3a6.368,6.368,0,0,0,12.737,0v-36.3A25.5,25.5,0,0,0,137.56,12.737Z" fill="#707070"/><path d="M308.22,270a38.22,38.22,0,1,0,38.22,38.22A38.263,38.263,0,0,0,308.22,270Zm0,63.806a25.585,25.585,0,1,1,25.585-25.585A25.614,25.614,0,0,1,308.22,333.806Z" transform="translate(-183.407 -183.407)" fill="#707070"/><path d="M386.478,342.951h-2.843v-6.633a6.317,6.317,0,1,0-12.635,0v12.951a6.317,6.317,0,0,0,6.317,6.317h9.16a6.317,6.317,0,0,0,0-12.635Z" transform="translate(-252.504 -224.761)" fill="#707070"/><ellipse cx="6.369" cy="6.05" rx="6.369" ry="6.05" transform="translate(89.299 61.03)" fill="#707070"/><ellipse cx="6.369" cy="6.05" rx="6.369" ry="6.05" transform="translate(61.032 88.654)" fill="#707070"/><ellipse cx="6.369" cy="6.05" rx="6.369" ry="6.05" transform="translate(33.407 61.03)" fill="#707070"/><ellipse cx="6.369" cy="6.05" rx="6.369" ry="6.05" transform="translate(33.407 88.654)" fill="#707070"/><circle cx="6.369" cy="6.369" r="6.369" transform="translate(33.407 115.64)" fill="#707070"/><circle cx="6.369" cy="6.369" r="6.369" transform="translate(61.032 115.64)" fill="#707070"/><ellipse cx="6.369" cy="6.05" rx="6.369" ry="6.05" transform="translate(61.032 61.03)" fill="#707070"/></svg>