<svg xmlns="http://www.w3.org/2000/svg" width="150" height="201.613" viewBox="0 0 150 201.613"><defs><style>.a{fill:#fff;}.a,.b,.c,.d,.e{fill-rule:evenodd;}.b{fill:#33a457;}.c{fill:#cc2131;}.d{fill:#fff22d;}</style></defs><g transform="translate(-31.407 -8.504)"><path class="a" d="M181.407,24.724v3.739l-75-12.714-75,12.714V24.724l75-12.8Z" transform="translate(0 0.399)"/><path class="b" d="M181.407,21.3v3.824l-75-12.8-75,12.8V21.3L106.4,8.5Z" transform="translate(0 0)"/><path class="c" d="M181.407,28.064l-75-12.714-75,12.714v12.9l.65-.356c.264-.143,26.877-14.415,74.49-14.415s73.919,14.275,74.186,14.417l.643.357Z" transform="translate(0 0.798)"/><path class="d" d="M106.29,27.295c43.048,0,68.255,12.069,72.34,14.185v38.3c0,20.879-4.936,41.679-14.665,61.833-21.3,44.02-53.338,61.3-57.82,63.56-4.485-2.256-36.553-19.54-57.842-63.56C38.575,121.456,33.64,100.656,33.64,79.777V41.485c4.122-2.114,29.594-14.19,72.65-14.19Z" transform="translate(0.26 2.191)"/><path class="e" d="M32.059,39.912l-.65.367V80.066c0,21.252,5.013,42.41,14.9,62.885,23.213,48.027,59.2,64.828,59.562,64.993l.533.243.532-.243c.364-.165,36.322-16.97,59.534-64.993,9.893-20.475,14.907-41.634,14.907-62.885V40.282l-.643-.368c-.266-.146-26.569-14.853-74.186-14.853s-74.227,14.7-74.491,14.851ZM106.55,27.631c43,0,68.175,12.058,72.256,14.172V80.066c0,20.86-4.93,41.642-14.648,61.777-21.27,43.98-53.276,61.249-57.753,63.5-4.48-2.254-36.51-19.523-57.775-63.5-9.717-20.136-14.647-40.917-14.647-61.777V41.808C38.1,39.7,63.544,27.631,106.55,27.631Z" transform="translate(0 1.93)"/><path class="e" d="M110.2,155.068c1.208.835.332,2.286-.563,2.512-.931.253-1.727-.781-2.178.353a4.956,4.956,0,0,0,5.151,5.219c4.4,0,6.5-5.652,6.917-6.5s.684-1.932.268-1.932a2.633,2.633,0,0,0-2.494,1.147,2.326,2.326,0,0,1,.814-1.936,3.022,3.022,0,0,1,2.205-.515c.787,0,.663-.586,1.139-1.746,1.084-2.73,1.83-2.853,2.535-4.1.584-1.014-.519-1.411-2.7-1.616a16.848,16.848,0,0,0-4.327.022,2.955,2.955,0,0,0-2.556,2.03c-.325.81.27,1.607,1.414,1.4a6.109,6.109,0,0,0,2.242-1.077,3.554,3.554,0,0,1-2.22,2.469c-1.581.389-3.448-.565-3.2-2.165.327-2.076,1.762-3.6,4.379-4.109a17.35,17.35,0,0,1,7.565.449c2.322.586,4.032.231,6.191.1a27.25,27.25,0,0,0,7.541-1.348,15.032,15.032,0,0,1-5.007,2.49c-2.909.794-5.5.464-6.342.794-.678.29-1.636,1.636-2.425,3.173-.726,1.414-1.5,3.043-1.165,3.043,2.7.1,3.695-.489,3.695-.489a3.788,3.788,0,0,1-1.823,1.718,8.124,8.124,0,0,1-2.412.362s-.682,1.727-1.45,3.286-2.041,3.991-4.322,5.194-6.669,2.7-9.427-1.267c-2.918-4.161-.255-8.9,2.548-6.965Zm-33.86.543a1.457,1.457,0,0,1-1.27,2.1c-.667,0-1.5-.495-1.669.338s1.77,5.088,6.256,5.088,6.569-2.6,6.253-4.924c-.352-2.6-4.477-3.629-7.766-5.358-1.609-.844-5.246-1.409-5.246-4.814,0-7.269,11.062-2.626,11.062-2.626s.023-.909.538-.951c.249-.023.749-.122.916.7s.9,5.194.9,5.194a10.554,10.554,0,0,0-6.088-4.776c-.789-.277-4.241-.933-4.221,1.8.041,1.622,2.019,2.35,5.447,3.681,4.505,1.766,6.813,3.411,5.749,8.148-1.013,4.548-5.459,5.3-7.621,5.3s-7.122-1.513-7.122-6.5c0-3.528,3.461-3.446,3.885-2.388Zm23.637-27.332,1.817.861a2.642,2.642,0,0,0,1.956.126,4.19,4.19,0,0,0,1.421-2.015.955.955,0,0,0-.144-.9c-.707-.837-1.958-4.684-2.423-6.763a23.746,23.746,0,0,1,.2-4.615,14.165,14.165,0,0,0,.155-2.622c-.124-.364-.668-.716-1.293-1.112l-.99-.674a2,2,0,0,1-.581-1.653l-.1-.981c-.23-.913-4.878-5.661-5.6-5.7-1.044-.068-1.315,1.077-1.382,1.766a24.836,24.836,0,0,0,.844,3.8l.463,1.924c.476,3.025,3.691,8.352,5.063,10.625l.651,1.105c.281.641.172,1.147-.328,1.43s-4.665-.157-6.662-.617a21.549,21.549,0,0,1-2.949-1.043,12.5,12.5,0,0,0-2.951-.961,2.6,2.6,0,0,0-1.392.242l-.453.126-.451-.144a12.72,12.72,0,0,0-4.415-.947c-4.119-.386-4.428.442-4.6.89-.2.569,2.314,3.247,2.764,3.605a5.969,5.969,0,0,0,3.556.979,30.471,30.471,0,0,1,3.662-.416l.424.259.394.279a26.914,26.914,0,0,0,3.355.309c.8.044,2.911.48,4.452.8l1.722.347a23.787,23.787,0,0,1,3.815,1.688Z" transform="translate(7.625 16.302)"/><path class="e" d="M144.138,82.924c-.092-.113-.167-.119-.215-.107s-.1.056-.119.19a3.953,3.953,0,0,1-1.368,2.267c-1.158.448-1.757,1.806-2.192,2.795-.222.51-.439,1-.611,1-.074.006-.155-.074-.245-.239-.714-1.23-.314-3.112.007-4.628l.074-.372c.261-1.278,1.757-3.069,2.652-4.144l.4-.476a7.013,7.013,0,0,0,.648-3.525.065.065,0,0,0-.076.032.145.145,0,0,0-.035.04l-.013,0v.013a.258.258,0,0,0-.1.174c-.16.8-1.629,2.437-4.139,4.608a13.1,13.1,0,0,0-1.581,1.9,5.084,5.084,0,0,1-.768.937,8.119,8.119,0,0,1,1.038-6.132l.249-.466a13.546,13.546,0,0,1,3.825-5.1.188.188,0,0,0-.03-.23c-.1-.08-.3-.046-.6.106l-.165.083a12.005,12.005,0,0,0-5.594,5.239,16.167,16.167,0,0,0-1.757,7.193,7.515,7.515,0,0,0,.341,2.485A73.679,73.679,0,0,1,135.8,93.94a57,57,0,0,1,.24,6.581c0,1.051,0,1.787,0,1.814-.007,0-.547,1.744-.547,1.744,0,.018-.264,1.38-2.49,3.657a12.2,12.2,0,0,1-4.761,3.027,4.363,4.363,0,0,1-1.95-.094c0-2.617-4.482-8.706-6.775-10.715a47.509,47.509,0,0,0-7.388-5.454c-3.236-1.97-6.835-10.227-6.876-10.307l-.312-1.115s-.174-2.228-.222-2.807c.117.067.27.162.27.162l1.1.642,1.267.487c.011,0,1.659.326,1.659.326s.922.476.922.476l.855.556,1.33.96,1.366.718c.028.008,1.64.09,1.64.09l.037-.133s-1.867-.877-1.871-.877c0-.027-.672-1.177-.672-1.177q-.392-.563-.783-1.127c-.026-.018-.97-.582-.97-.582q-.6-.091-1.2-.17c0-.01-.236-.212-.357-.322.1-.061.3-.184.3-.184s1.286.163,1.291.163,1.144.792,1.144.792l1.249.962c.02.01,1.182.461,1.182.461l.153.06-.51-1.328q-.479-.458-.964-.91l-1.416-1.2c-.011-.01-1.112-.577-1.112-.577s-1.186-.4-1.186-.4-1.243-.795-1.243-.795.013-.085.022-.157c.157.06,1.721.688,1.721.688s1.5.406,1.5.406,1.249.478,1.249.478,1.8.874,1.8.874c.016.008,1.507.332,1.507.332.026,0,1.84-.324,1.84-.324.023-.011,1.753-1.215,1.753-1.215.02-.032.338-.748.338-.748l.068-.165-.556.23s-1.57.795-1.572.795l-1.084.242c0-.006-1.224-.246-1.226-.246h0c0-.015-.993-.938-.993-.938l-1.409-1.364-1.274-.652c-.018-.008-1.507-.249-1.507-.249s-.907-.465-.922-.472c0,0,.007-.017.007-.04,0-.109-.028-.348-.039-.46l1.874.157,2.052-.165c0,.006,1.156.241,1.156.241l1.169.482,1.2.162.215.029-1.334-1.276c-.013-.007-1.345-.969-1.345-.969-.016-.008-1.117-.411-1.117-.411-.02,0-1.856-.16-1.893-.163.016,0,.018-.032.018-.078a3.336,3.336,0,0,0-.028-.352l.868-.147c0,.006,1.389.318,1.389.318s1.315.794,1.315.794l1.421.486c.041,0,2.076-.318,2.076-.318l.122-.017-.62-.818c-.035-.027-1.057-.345-1.06-.345s-.844-.63-.844-.63l-1.258-.884c-.018-.01-.957-.329-.957-.329-.016-.006-1.5-.242-1.5-.243s-.728-.686-.744-.7a1.352,1.352,0,0,0,.085-.344l.783.219,1.007.48,1.43.453-.316-.631-.556-.581-.487-.628.211-.052c0,.019,1.522.795,1.522.795l1.186.4c0,.007.916.865.916.865s1.746.989,1.746.989l.174.1-.316-.846c-.009-.019-.949-1.222-.949-1.222l-.783-1.353c-.007-.016-1.424-1.457-1.424-1.457S114,65.4,114,65.4s-.687-.786-.687-.786q-.63-.641-1.258-1.285c0-.017-.128-.457-.194-.68.213.068,1.222.4,1.222.4l1.411.4s1.007.631,1.007.631.84,1.026.84,1.026c.03.023,1.368.586,1.368.586l3.409.442.2.025-.936-.985c-.023-.018-1.83-.821-1.83-.821l-1.084-.791c0-.015-.606-1.1-.606-1.1l-.632-1.121c-.011-.017-1.032-.978-1.032-.978-.016-.011-1.272-.732-1.272-.732l-1.243-1.034c0-.01-.3-.63-.49-1.043l.863.832,1.649,1.444c.02.012,1.278.574,1.278.574l1.077.871,1.252,1.277c.044.02,2,.3,2,.3l.245.036-1.986-1.721c0-.031-.449-1.41-.449-1.41q-.515-.5-1.041-.993l-.54-.635c0-.017-.538-1.657-.538-1.657q-.555-.578-1.119-1.147c0-.009-1.794-1.683-1.8-1.689v0c0-.026-.064-.281-.1-.45.137.069.325.169.325.169l1.647.959c.016.008,1.976.568,1.976.568l2.046.485,2.364.377-.556-1.124c-.039-.036-1.215-.515-1.215-.515l-1.091-.636c-.011,0-1.343-.566-1.343-.566l-1.174-.48c0-.011-.762-.994-1.186-1.536.408.274,1.036.7,1.036.7.03.01,1.057.092,1.057.092h3.221c0,.009,1.3.713,1.3.716s1.112,1.2,1.112,1.2l.146.157-.135-1.353c-.013-.039-.72-.922-.72-.922-.02-.016-1.908-1.059-1.908-1.059l-1.5-.565c-.011,0-2.272-.4-2.283-.4v0c0-.021-.432-.536-.432-.536s-1.655-1.527-1.655-1.527q-.4-.209-.8-.412s-.251-.262-.408-.425h.846c0,.013,1.3.793,1.3.793s1.743.566,1.743.566l2.21.323h0c0,.023.82.941.82.941l1.195.734q.68.125,1.361.242l.19.03-2.8-3.426c-.018-.017-1.354-.737-1.354-.737s-1.579-.488-1.579-.488c0-.017-1.38-1.582-1.38-1.582-.016-.017-1.744-1.056-1.744-1.056q-.627-.159-1.256-.306c.078-.126.338-.555.338-.557s1.385-.612,1.385-.612,2.023-.4,2.023-.4a3.179,3.179,0,0,0,.208-.53,7.851,7.851,0,0,0-.89-.642q-.517-.168-1.036-.331a6.312,6.312,0,0,0-.611.331c0-.01-1.693.067-1.693.067s-2.023-.477-2.023-.479-2.085-1.747-2.085-1.747q-.479-.246-.959-.489c-.023,0-3.467-.408-3.476-.408,0-.044-.81-1.252-.81-1.252l-1.108-1.21c0-.007-1.41-1.275-1.41-1.275l-.044.093L99.7,34.18c0-.01-.465.711-.465.711v.018c0,.133.066.83.066.83.02.044.476.51.486.524-.023,0-.172.726-.172.731,0-.05-1.889.027-1.893.027s-1.54-.716-1.54-.716-1.19-.406-1.19-.406c-.023-.008-2.769.077-2.769.077a8.9,8.9,0,0,0-.526.753l-.063.095L92.843,37s.179.118.278.182l-.309.252c0-.016-1.68-.093-1.68-.093-.028,0-1.21.483-1.21.483l-.123.052.586.394c.037.013,2.548.093,2.548.093l1.865.48v0c0,.026.355.533.355.533s.252.356.347.5l-.8.44c.01,0-2.269.96-2.269.96l-4.711,2.645s-3.1.458-3.1.458c-.023.008-1.213.67-1.213.67-.026.018-.98,1.341-.98,1.341-.01.017-.55,1.664-.55,1.664-.042,2.8.069,2.863.109,2.885a1.736,1.736,0,0,0,1.526.181,14.344,14.344,0,0,1,3.01-.931c.389-.079.571.06.6.2s-.075.372-.365.451l-.163.048c-1.369.372-2.766.822-2.72,1.35l.241.4c.611.446,2.2.234,3.042.044l.88-.247a6.309,6.309,0,0,1,2.359-.406,4.038,4.038,0,0,1,1.244.441,5.791,5.791,0,0,0,2.311.687,9.079,9.079,0,0,1,2.965.564,2.9,2.9,0,0,1-.033,1.708l-.088.5c-.478,4.333-5.316,9.233-7.647,11.583a9.961,9.961,0,0,0-1.136,1.232l-.268.62a1.967,1.967,0,0,1-1.15,1.368,19.177,19.177,0,0,0-2.582,1.783c-1.67,1.246-3.742,2.8-4.312,2.729-.955-.113-5.413-3.182-5.6-3.371-4.342-4.2-6.159-3.34-7.247-2.826l-.172.08c-1.3.59-2.655,4.259-2.778,5.046l-.525,2.26-.4,1.66c-.119.562-.654,1.942-1.165,3.275l-1.047,2.9a17.645,17.645,0,0,1-.935,2.381l-.463,1.131c-.323,1.328-.328,8.6.233,9.242l.025.027.111.032c.564-.058,1.774-1.305,2.355-1.907l.134-.14a4.723,4.723,0,0,0,1.013-2.365,9.668,9.668,0,0,0-.354-1.986,12.942,12.942,0,0,1-.346-5.785l.057-.489A3.418,3.418,0,0,1,63.641,82.8l.626-.725a2.172,2.172,0,0,1,1.066-.745l.559-.319.087-.09a4.806,4.806,0,0,0,1.265-1.839l.531-2.3.116-.614a.244.244,0,0,1,.193-.213.785.785,0,0,1,.662.3l3.843,4.46a9.115,9.115,0,0,1,2,2.059V82.8s-.023,0-.023,0a23.894,23.894,0,0,1-3.7-.65c-3.679-1.079-5.358-.889-6.654.732-1.476,1.857-1.012,7.544-.71,8.167.277.565,1.624,7.493,1.684,8.417a6.911,6.911,0,0,0,.777,2.9l.1.1a6.363,6.363,0,0,1,1.859,2.833c.228,1.289,2.965,4.739,4.009,5.048a.514.514,0,0,0,.46-.089c.8-.565,1.158-3.326,1.2-4.492a4.043,4.043,0,0,0-1.024-2.906l-.212-.294a2.846,2.846,0,0,0-1.6-.891c-.2-.057-.479-.124-.479-.186,0-.021-.056-2.149-.735-2.56-.528-.325-1.069-2.378-1.132-3.16a13.077,13.077,0,0,0-.765-3.473,6.843,6.843,0,0,1-.576-3.524.793.793,0,0,1,.725-.709,1.409,1.409,0,0,1,1.178.314,26.786,26.786,0,0,0,5.39,3.247,12.643,12.643,0,0,1,2.884,2.066A11.034,11.034,0,0,0,78.9,94.94a11.09,11.09,0,0,0,3.057.291,7.627,7.627,0,0,1,1.316.075c-.462.185-.457,1-.419,1.257.472,3.353,12.671,12.564,13.614,13.081a37.161,37.161,0,0,1,5.352,5.232,2.812,2.812,0,0,1,.634,1.607,2.748,2.748,0,0,0,.724,2.091,2.564,2.564,0,0,0,1.83.947c.545,0,.909-.489,1.178-.842l.057-.074a8.086,8.086,0,0,0,1.947-4.582c.149-2.263,1.182-3.162,1.52-3.221.151-.028.261.018.3.117s-.009.275-.213.41a5.043,5.043,0,0,0-1.032,2.375c0,.009-.114,1.093-.114,1.093a3.638,3.638,0,0,1-.865,2.617c-1.21,1.311-2.6,4.333-2.959,8.15-.218,2.3.817,5.611,3.075,9.831l.157.3.611,1.025a12.45,12.45,0,0,1,1.6,3.029,3.573,3.573,0,0,1-1.057,2.153c-1.034,1.3-4.807,5.688-5.175,5.757a1.825,1.825,0,0,0-1.481.554l-.636.485a2.119,2.119,0,0,0-.936,1.193,1.266,1.266,0,0,1-.491.7l-.242.163c-.05.044-.186.236-1.7,1.753a6.58,6.58,0,0,0-2.247,5.6c.086.6.606.815,2.149.885s5.074-2.4,5.231-3.206l.055-.307c.135-.726.362-1.95.762-2.126a9.051,9.051,0,0,0,1.915-1.858l.117-.131a2.225,2.225,0,0,0,.478-1.1,2.187,2.187,0,0,1,.309-.817,1.492,1.492,0,0,1,.6-.4,2.586,2.586,0,0,0,1.485-1.579c.423-1.047,2.949-2.86,4.793-4.178a13.489,13.489,0,0,0,1.858-1.442,2.792,2.792,0,0,0,.391-1.57,2.862,2.862,0,0,0-.687-2.034,9.737,9.737,0,0,1-1.555-3.19v-.013c0-.251-.023-.711-.061-1.568a1.049,1.049,0,0,1,0-.117c0-2.266,3.368-4.482,4.821-5.437l.663-.458c5.271-4.649,6.3-8.185,6.5-9.155l.107-1.162c.032-.805.059-1.572.545-1.673a.886.886,0,0,1,.7.345.687.687,0,0,1,.163.68c-.24.652-.32,7.208-.323,7.48.018.046.567.693.567.693l.1.117.03-.153c.007-.076.309-1.862.309-2.494a11.191,11.191,0,0,1,1.411-3.786.121.121,0,0,0,.018.035,10.011,10.011,0,0,1,.3,2.542,4.827,4.827,0,0,1-.682,2.848,14.89,14.89,0,0,0-1.828,3.544l-.38.868a.966.966,0,0,0-.055.375,7.735,7.735,0,0,0,.709,2.931c.074.078.133.078.174.064.092-.035.174-.153.174-.849a6.742,6.742,0,0,1,2.253-4.586c1.963-1.558,2.391-4.446,2.391-6.647a17.191,17.191,0,0,0-.251-2.972q-.466-.69-.942-1.373c.046.022.3-.188.386-.256.085.109.979,1.3.979,1.3a3.207,3.207,0,0,1,.533,1.071,12.772,12.772,0,0,0,.36,2.981l.037.162a32.409,32.409,0,0,0,1.182,3.144l.1.245.032-.266a9.744,9.744,0,0,0,0-2.261,7.539,7.539,0,0,1,.135-2.066l.179-1.769a5.6,5.6,0,0,0-.718-3.171l-.261-.4a1.28,1.28,0,0,1-.192-.353l.192-.083a11.618,11.618,0,0,0,6.861-6.15,14.276,14.276,0,0,0,.868-5.079,25.761,25.761,0,0,0-.632-6.117,8.715,8.715,0,0,1-.122-3.513l.128-2.156a6.2,6.2,0,0,1,1.529-3.629l.9-1.389a2.488,2.488,0,0,0,.039-2.459Z" transform="translate(5.776 2.861)"/><path class="e" d="M93.922,36.755c.069,0,.95-.414.95-.414a5.455,5.455,0,0,0-.165-.913q-.954-1.131-1.917-2.254l-.095-.111-.032.138-.205.9c0-.009-.609,1.449-.609,1.449l-.028.061,1.284.657.817.483Z" transform="translate(9.374 2.863)"/><path class="a" d="M98,41.955a1.135,1.135,0,0,0,.8-.087c.444-.209.707-.566.594-.822l-.2-.184a1.1,1.1,0,0,0-.794.089c-.381.17-.624.452-.624.692a.365.365,0,0,0,.027.127l.2.184Zm7.67-3.165.366.2a.467.467,0,0,0,.312.257.528.528,0,0,0,.447-.112.344.344,0,0,0,.059-.4.907.907,0,0,0-.755-.633c-.439,0-.84.05-.84.374C105.258,38.652,105.466,38.721,105.667,38.789Zm.439,1.294a.428.428,0,0,0-.2.465l.035.142c.044.167.059.2.213.22l.279.05a1.058,1.058,0,0,0,1.051-.416c.044-.093.078-.272-.165-.442A1.114,1.114,0,0,0,106.106,40.084Zm1.142,4.97c-.1-.049-.059-.212.02-.449.064-.193.122-.379.022-.48-.087-.084-.242-.077-.506.021-.949.342-1.094,1.309-1.2,2.015l-.032.218c-.055.315.107.422.208.458a1.158,1.158,0,0,0,1.051-.408c.149-.245.968-.468,1.565-.631l.229-.063c.277-.076.419-.182.439-.326.03-.189-.179-.361-.364-.471a.965.965,0,0,0-.7.048,1.275,1.275,0,0,1-.737.067Zm-10.031.363a.626.626,0,0,0,.478-.252,1.662,1.662,0,0,0,.025-1.669,1.568,1.568,0,0,0-1.265-.925l.007,0-.108-.015-.913.071a1.445,1.445,0,0,0-1.038.814.437.437,0,0,0,.1.461,4.571,4.571,0,0,0,2.718,1.512Zm-8.994-.735c.109.269.611.3,1.347.08l.162-.049L91.05,44.2l1.91-1.256c.056-.044.555-.419.452-.659-.073-.157-.322-.13-.5-.1a6.436,6.436,0,0,0-1.594.617l-.777.361L90.2,43.3c-1.182.489-2.152.928-1.974,1.377Zm-4.017,1.4a.833.833,0,0,0-.721.406l-.178.2a1.81,1.81,0,0,0-.362,1.379c.016.2.073.565.27.681.379.233.559.069.946-.3l.3-.257a1.973,1.973,0,0,0,.875-1.234.7.7,0,0,0-.16-.573,1.351,1.351,0,0,0-.97-.306Zm2.2.175a.222.222,0,0,0-.218.048c-.115.113-.068.354-.032.547l.022.135-.023.082a.239.239,0,0,0,0,.232c.049.075.169.107.372.107.258,0,.284-.025.371-.255l.069-.178a.479.479,0,0,0,0-.409.8.8,0,0,0-.565-.31ZM88.528,49.7a.525.525,0,0,0,0-1.048.524.524,0,0,0,0,1.048ZM98.1,48.421a.412.412,0,0,0-.4.15,18.409,18.409,0,0,1-1.636,1.19l-.814.578-.066.064a.269.269,0,0,0-.086.354l.1.14.214-.044.317-.117.457-.071a2.161,2.161,0,0,0,1.175-.363l.3-.495.45-.722c.215-.238.227-.4.2-.494a.274.274,0,0,0-.211-.17Zm.946,2.919a.415.415,0,0,0,.208.409.553.553,0,0,0,.665-.238L100.5,51a4.514,4.514,0,0,0,.985-.883c.29-.374.165-.6.061-.7a.7.7,0,0,0-.746-.125l-.169.115a3.656,3.656,0,0,0-1.517,1.553A1.182,1.182,0,0,0,99.046,51.34Zm3.812-.288a.394.394,0,0,0-.478-.172l-.412.313a3.232,3.232,0,0,1-.966.625c-.762.2-1.794.545-1.858,1.067v.068a.334.334,0,0,0,.127.278c.289.236.992.1,1.5-.1a5.236,5.236,0,0,0,1.865-1.2c.376-.343.36-.686.223-.888ZM99.9,57.07l-.248-.028c-.641.171-1.735,2.056-2.5,3.46l-.137.243-2.3,4.321-.722,1.376a.35.35,0,0,0,.068.428.414.414,0,0,0,.544.023,12.26,12.26,0,0,0,2.435-2.738l.865-1.194a10.239,10.239,0,0,0,1.558-2.5l.131-.333c.879-2.279,1.016-2.627.313-3.058Zm8.658-8.306a.5.5,0,1,0,.354.139.5.5,0,0,0-.354-.139Zm-.242,2.036a.5.5,0,0,0,.51.489.489.489,0,1,0,0-.978A.5.5,0,0,0,108.313,50.8Zm.469,1.082a.476.476,0,1,0,.584.463A.537.537,0,0,0,108.781,51.881Zm-.023,1.353a.53.53,0,1,0,.654.516A.6.6,0,0,0,108.758,53.235Zm.023,1.717c-.4,0-.737.24-.737.543s.334.538.737.538.732-.24.732-.538S109.187,54.952,108.781,54.952Zm-.249,2.879c.458-.04.794-.291.768-.582l-.144-.264a1,1,0,0,0-.711-.174c-.442.04-.769.279-.769.553l0,.028.149.262a.969.969,0,0,0,.706.176Zm-1,1.436,0-.013Zm.975.372c.513-.076.874-.357.833-.648l-.151-.241a1.155,1.155,0,0,0-.826-.144c-.5.07-.874.357-.833.648l.155.24A1.15,1.15,0,0,0,108.507,59.638Zm-.863.872c0,.316.384.568.888.568s.881-.252.881-.568-.38-.565-.881-.565S107.644,60.194,107.644,60.51Zm1.57,1.848c0-.335-.458-.591-1.043-.591s-1.036.256-1.036.591.458.593,1.036.593S109.214,62.691,109.214,62.358Zm-.665,1.56a.784.784,0,1,0-.757.593A.692.692,0,0,0,108.548,63.918Zm-.357,1.951a.823.823,0,1,0-.812.669A.752.752,0,0,0,108.191,65.869Zm-.659,1.9a.665.665,0,0,0-1.322,0,.665.665,0,0,0,1.322,0Zm-1.141,1.123a.593.593,0,1,0,.632.593A.617.617,0,0,0,106.391,68.89Zm-.538,2.848a.53.53,0,1,0,0-1.026.528.528,0,1,0,0,1.026Zm-.606,1.247c.332,0,.6-.193.6-.437s-.268-.434-.6-.434-.611.191-.611.434S104.908,72.986,105.246,72.986Zm-.588,1.2c.316,0,.584-.2.584-.438s-.268-.435-.584-.435-.582.2-.582.435S104.333,74.185,104.658,74.185ZM87.443,73.123l.1.02.8-.143a15.523,15.523,0,0,1,3.076-.429,8.579,8.579,0,0,1,2.745.554c.683.228,1.024.326,1.153.185.082-.093.031-.228-.013-.323-.205-.443-1.105-1.9-4.042-1.967a4.9,4.9,0,0,0-3.8,1.8c-.066.112-.084.194-.05.256l.028.045Zm10.92,5.52a.656.656,0,0,0,.255-.633c-.063-1.188-.381-1.323-1.036-1.323A1.229,1.229,0,0,0,96.437,77.7c0,.325.239.61.7.842a1.394,1.394,0,0,0,1.224.1Zm9.01,14.523c.947.442,1.28.6,1.421.643,0,0,.009.013.009.013s.007-.006.007-.008c.066.02.087.012.1-.01-.009-.007-.046-.063-.066-.078a.118.118,0,0,0,.022-.032.526.526,0,0,1-.064-.03c-.626-.791-4.4-6.153-5.2-9.683a1.962,1.962,0,0,0-.654-1.34.979.979,0,0,0-.81-.019h0a.265.265,0,0,0-.165.176.857.857,0,0,0-.041.308,18.692,18.692,0,0,0,1.782,5.444c2.427,3.94,3.613,4.588,3.659,4.615ZM138.2,94.7l-.144.028c0,.022.037,1.075.037,2.427a28.039,28.039,0,0,1-.41,5.783,21.6,21.6,0,0,1-2.571,4.255s-1.193,1.789-1.193,1.791a.384.384,0,0,0-.05.2.534.534,0,0,0,.247.447c.119.083.552.295,1.153-.423l.762-.805a11.187,11.187,0,0,0,3.169-5.05C140.179,100.3,138.22,94.752,138.2,94.7Zm-31.766,9.935a.371.371,0,0,0,.4.061.652.652,0,0,0,.437-.563,2.611,2.611,0,0,1,.7-1.332,1.2,1.2,0,0,0-.076-1.67l-.506-.2a.966.966,0,0,0-.581.279q-.254,1.217-.5,2.436v0c-.048.135-.092.78.13.993Zm16.447,8.993-.026-.011-.026.011a1.153,1.153,0,0,0-.565.628.9.9,0,0,0,.192.721l.142.266.061.53.1.78a.372.372,0,0,0,.38.266.57.57,0,0,0,.506-.469,7.6,7.6,0,0,0,.153-1.741C123.8,113.921,122.924,113.637,122.885,113.628Zm-25.527-6.35c-.057-.066-6.086-6.609-7.39-8.323-1.328-1.756-1.962-1.889-2.612-1.53a.342.342,0,0,0-.171.267c-.094.714,1.412,2.44,2.731,3.707,1.843,1.774,7.289,5.945,7.345,5.986l.1-.107ZM73.725,87.967a12.72,12.72,0,0,0-3.358-1.188l-.056.128,2.346,1.769c.386.317,2.094,1.377,2.645.944a.276.276,0,0,0,.109-.232c-.018-.318-.61-.744-1.687-1.42Zm-.573-10.01.165-.07c.211-.238-.275-.913-.865-1.459a2.571,2.571,0,0,0-1.358-.793l-.161.069a.218.218,0,0,0-.049.15,2.651,2.651,0,0,0,.912,1.311A2.582,2.582,0,0,0,73.153,77.957Zm6.268-.854-.24.015a6.109,6.109,0,0,0-1.756,2.815,9.249,9.249,0,0,0-.713,2.844c0,.323.069.542.223.606l.237-.015a6.216,6.216,0,0,0,1.761-2.816,9.28,9.28,0,0,0,.709-2.847c0-.32-.066-.54-.22-.6ZM68.137,69.952c-.588,0-1.057.279-1.057.632s.469.626,1.057.626,1.062-.276,1.062-.626S68.734,69.952,68.137,69.952Zm-3.753,7.813.183-.017a4.484,4.484,0,0,0,1.162-2.1c.384-1.149.594-2.383.222-2.515l-.18.019a4.43,4.43,0,0,0-1.163,2.1c-.391,1.15-.588,2.384-.224,2.512Zm.983,5.944c.313-.419.375-.89.143-1.066l-.27-.058a1.147,1.147,0,0,0-.7.5c-.313.419-.375.889-.144,1.062l.271.064a1.179,1.179,0,0,0,.7-.5Zm-.36,6.51-.026-.016-.117-.012c-.422.1-.125,1.936.093,2.9a6.028,6.028,0,0,0,1.018,2.621l.025.018.115.012c.429-.1.125-1.945-.092-2.9a5.923,5.923,0,0,0-1.016-2.623Zm-4.252,2.468a.563.563,0,1,0,.622.567A.6.6,0,0,0,60.755,92.686ZM71.2,106.026a.7.7,0,1,0,.721.7.715.715,0,0,0-.721-.7Zm35.316,18.587c.022.035.087.151.185.14l.041,0,.076-.114.648-1.974.506-1.315.432-1c.133-.336.133-.561,0-.691-.208-.19-.636-.028-.689-.009-.035.028-1.217,2-1.217,2a2.43,2.43,0,0,0-.318,1.318,3.777,3.777,0,0,0,.334,1.647Zm2.954,9.862.023-.2c.016-.117.371-2.863-.473-3.924a1.03,1.03,0,0,0-.728-.408.5.5,0,0,0-.524.21c-.515.842,1.505,4.013,1.594,4.15ZM114.2,139.7a.725.725,0,1,0,0,1.449.725.725,0,1,0,0-1.449Zm-11.133-8.843a.606.606,0,1,0,0,1.21.606.606,0,1,0,0-1.21Zm8.113,10.708-.078-.018c-.384,0-1.838,1.272-3.077,2.54-.109.116-2.8,2.876-2.444,3.236l.02.022.087.018c.389,0,1.84-1.276,3.073-2.538.116-.117,2.812-2.867,2.444-3.24Zm-8.081,7.462a1.577,1.577,0,0,0-.89.524c-.375.375-.648.894-.447,1.108l.013.013-.013-.013.2.071a1.537,1.537,0,0,0,.894-.526c.366-.38.648-.888.439-1.1Zm-3.545,5.108a2.126,2.126,0,0,0-1.567,1.6.317.317,0,0,0,.094.249l.251.1a1.654,1.654,0,0,0,1.006-.567c.495-.506.693-1.047.469-1.282ZM81.021,128.4c-.531,0-.964.3-.964.684s.433.672.964.672.964-.293.964-.672S81.557,128.4,81.021,128.4Zm7.85.549c-.377,0-.671.2-.671.471,0,.251.294.458.671.458s.665-.208.665-.458S89.235,128.953,88.871,128.953Zm9.58,3.206.058-.089c.108-.451-2.152-1.156-3.36-1.462-1.45-.371-3.174-.668-3.555-.439l-.027.018-.061.094c-.109.456,2.149,1.151,3.36,1.467,1.449.364,3.173.652,3.56.425l.026-.015Z" transform="translate(5.745 5.72)"/></g></svg>