<svg xmlns="http://www.w3.org/2000/svg" width="97.373" height="85.002" viewBox="0 0 97.373 85.002"><defs><style>.a{fill:#e32119;}</style></defs><path class="a" d="M93.446,75.394a12.508,12.508,0,0,1-2.258-7.379c0-.015,0-.031,0-.046A42.516,42.516,0,0,0,34.076,28.052a12.532,12.532,0,0,1-7.692.365A20.755,20.755,0,0,0,3.928,60.544a12.506,12.506,0,0,1,2.258,7.379v.046A42.516,42.516,0,0,0,63.3,107.886a12.532,12.532,0,0,1,7.692-.365A20.755,20.755,0,0,0,93.446,75.394ZM50.243,60.35c8.57,2.038,21.52,5.117,21.52,19.382,0,7.027-3.461,12.388-9.745,15.094-4.484,1.931-9.559,2.192-13.933,2.192-13.439,0-21.927-10.45-22.282-10.895a6.393,6.393,0,0,1,10-7.972c.02.024,5.1,5.853,12.286,6.081,8.658.275,10.636-2.3,10.892-4.5.313-2.686-2.077-4.657-11.693-6.944-8.151-1.939-20.47-4.868-20.47-18.005,0-4.091,1.664-17.439,23.075-17.439,13.52,0,21.5,10.645,21.833,11.1a6.393,6.393,0,0,1-10.272,7.613,19.2,19.2,0,0,0-11.562-5.925C44.711,49.637,39.6,51.5,39.6,54.262,39.6,57.184,41.067,58.168,50.243,60.35Z" transform="translate(0 -25.468)"/></svg>