<svg xmlns="http://www.w3.org/2000/svg" width="99.695" height="81.002" viewBox="0 0 99.695 81.002"><defs><style>.a{fill:#e32119;}</style></defs><g transform="translate(0 -48)"><g transform="translate(0 48)"><path class="a" d="M99.7,57.589a42.613,42.613,0,0,1-11.777,3.228,20.324,20.324,0,0,0,8.991-11.3,40.845,40.845,0,0,1-12.96,4.947A20.437,20.437,0,0,0,48.6,68.444a21.045,21.045,0,0,0,.474,4.661A57.851,57.851,0,0,1,6.941,51.726a20.444,20.444,0,0,0,6.281,27.317,20.184,20.184,0,0,1-9.234-2.517v.224A20.532,20.532,0,0,0,20.363,96.832,20.4,20.4,0,0,1,15,97.5a18.071,18.071,0,0,1-3.869-.349,20.633,20.633,0,0,0,19.1,14.238,41.067,41.067,0,0,1-25.341,8.717A38.285,38.285,0,0,1,0,119.83,57.54,57.54,0,0,0,31.354,129c37.61,0,58.172-31.155,58.172-58.16,0-.9-.031-1.776-.075-2.642A40.773,40.773,0,0,0,99.7,57.589Z" transform="translate(0 -48)"/></g></g></svg>