<svg xmlns="http://www.w3.org/2000/svg" width="163.034" height="162.682" viewBox="0 0 163.034 162.682"><rect width="16.408" height="5.469" transform="translate(117.033 108.555)" fill="#707070"/><rect width="16.408" height="5.469" transform="translate(95.259 108.555)" fill="#707070"/><rect width="16.408" height="5.469" transform="translate(73.486 108.555)" fill="#707070"/><path d="M160.621,56.814,106.741,2.926a8.134,8.134,0,0,0-5.789-2.41h-.024a8.057,8.057,0,0,0-5.743,2.41L38.029,60.073H8.169A8.169,8.169,0,0,0,0,68.242v76.244a8.169,8.169,0,0,0,8.169,8.169H48.513l8.125,8.134a8.134,8.134,0,0,0,5.789,2.41h.022a8.06,8.06,0,0,0,5.746-2.41l8.142-8.134h62.536a8.169,8.169,0,0,0,8.169-8.169V81.95l13.566-13.566a8.126,8.126,0,0,0,.014-11.57ZM125.982,29.875l-30.2,30.2H72.66l41.76-41.76ZM99.041,6.765a2.685,2.685,0,0,1,3.8-.045l.045.045,7.687,7.7L64.957,60.073H45.73Zm-34.7,150.184a2.649,2.649,0,0,1-1.906.817,2.723,2.723,0,0,1-1.939-.817l-4.278-4.294h12.42ZM141.6,144.486a2.723,2.723,0,0,1-2.723,2.723H8.169a2.723,2.723,0,0,1-2.723-2.723V106.364H141.6Zm0-43.568H5.446V84.58H141.6Zm0-21.784H5.446V68.242a2.723,2.723,0,0,1,2.723-2.723h130.7a2.723,2.723,0,0,1,2.723,2.723ZM156.771,64.52h0l-9.729,9.729V68.242a8.169,8.169,0,0,0-8.169-8.169h-35.4l26.348-26.348L156.76,60.664a2.722,2.722,0,0,1,.817,1.947A2.669,2.669,0,0,1,156.771,64.52Z" transform="translate(0 -0.516)" fill="#707070"/><path d="M41.89,378.707a10.93,10.93,0,0,0,1.118-1.118,10.843,10.843,0,0,0,14.4,1.854,11.119,11.119,0,0,0,4.747-9.013A10.939,10.939,0,0,0,51.212,359.49a8.3,8.3,0,0,0-1.619.137l-.071.019h-.079a10.8,10.8,0,0,0-6.435,3.632,10.939,10.939,0,1,0-1.118,15.429Zm8.631-13.69a3.306,3.306,0,0,1,.692-.057,5.469,5.469,0,0,1,5.469,5.469,5.363,5.363,0,0,1-1.075,3.208c-.1.134-.175.273-.287.413-.019.022-.046.036-.068.057a5.437,5.437,0,1,1-4.731-9.09ZM34.8,364.96a5.469,5.469,0,1,1-5.469,5.469A5.469,5.469,0,0,1,34.8,364.96Z" transform="translate(-15.661 -237.478)" fill="#707070"/></svg>