<svg xmlns="http://www.w3.org/2000/svg" xmlns:xlink="http://www.w3.org/1999/xlink" width="1920" height="799.501" viewBox="0 0 1920 799.501"><defs><linearGradient id="a" x1="-584.278" y1="0.5" x2="-583.278" y2="0.5" gradientUnits="objectBoundingBox"><stop offset="0"/><stop offset="0.07" stop-color="#303030"/><stop offset="0.158" stop-color="#666"/><stop offset="0.247" stop-color="#959595"/><stop offset="0.335" stop-color="#bbb"/><stop offset="0.422" stop-color="#d8d8d8"/><stop offset="0.508" stop-color="#eee"/><stop offset="0.592" stop-color="#fafafa"/><stop offset="0.671" stop-color="#fff"/></linearGradient><linearGradient id="b" x1="-43.88" y1="0.933" x2="-43.88" y2="0.241" gradientUnits="objectBoundingBox"><stop offset="0" stop-color="#9fb2b2"/><stop offset="0.329" stop-color="#a2b3b3"/><stop offset="0.637" stop-color="#adb9b9"/><stop offset="0.935" stop-color="#c0c3c3"/><stop offset="1" stop-color="#c6c6c6"/></linearGradient><linearGradient id="c" x1="-46.225" y1="0.933" x2="-46.225" y2="0.241" xlink:href="#b"/><linearGradient id="d" x1="-129.179" y1="0.933" x2="-129.179" y2="0.241" xlink:href="#b"/></defs><g transform="translate(0 -262.617)"><g transform="translate(0 735.913)"><rect width="1920" height="326.205" fill="#d3d9e0"/></g><g transform="translate(234.073 262.617)"><path d="M66.825,475.1c2.086,2.091,6.016,3.861,11.162,5.389v.017l.311.073a125.147,125.147,0,0,0,14.217,3.115c8.3,0,87.812,5.7,98.522,5.7l8.41-.008h.047v1.7a15.44,15.44,0,0,0,15.441,15.441h8.934a12.838,12.838,0,0,0,12.838,12.839h24.4v211.52h-8.956a35.732,35.732,0,0,0-35.729,35.733H341.987a35.735,35.735,0,0,0-35.733-35.733h-8.235V519.364h58.458a12.771,12.771,0,0,0,7.189-2.2V679.12h-8.6a35.728,35.728,0,0,0-35.729,35.729H444.907a35.732,35.732,0,0,0-35.733-35.729h-8.593V501.661h43.908a12.811,12.811,0,0,0,12.779-12.224l1,.013c1.583,0,5.841-.017,11.772-.047a42.228,42.228,0,0,0,79.539-.418c5.06-.021,8.657-.038,9.941-.038q6.336-.186,12.288-.44l.034,0c22.839-.96,40.474-2.645,42.556-5.521v-40.87c0-2.035-2.914-6.767-2.914-6.767s-.094-10.756-6.6-19c-.124-1.655-2.3-6.916-8.29-11.366-6.81-5.064-87.932-27.038-96.683-29.4l-.128-.188s-13.751-3.294-16.772-4.676c-17.562-8.055-50.679-27.226-82.432-41.848V268.808H363.666v45.564c-1.852-.555-3.712-1.114-5.483-1.566-13.53-3.447-35.315-4.262-60.164-3.584V289.006H261.1v22.067c-63.377,4.395-130.18,14.238-130.18,14.238l-.265.29c-10.867.068-26.031.38-25.557,1.566.661,1.651,9.519,8.6,14.451,10.586L90.424,369.629l-.64,1.31c-4.292-.286-8.951-.457-13.7-.457-8.934,0-13.9,8.329-15.01,19.294-1.071,10.62-.849,27.789.61,34.62l.009.038c.111.516.23.964.354,1.353.013.043.026.1.043.145a4.467,4.467,0,0,0,.367.823l.026.068-.009.021-7.215,13.786A41,41,0,0,0,66.825,475.1ZM611.474,435.34h0v0Z" transform="translate(-54.861 -242.393)" fill="#d3d9e0"/><g transform="translate(1093.377)"><path d="M717.66,315.246l.427-1.646-390.27-48.715-.62,1.612,205.991,48.715.815-1.579L342.483,268.343Z" transform="translate(-258.604 -255.208)" fill="#d3d9e0"/><rect width="446.857" height="9.76" transform="translate(465.056 64.094) rotate(180)" fill="#d3d9e0"/><path d="M315.386,280.231h23.572l29.744-4.879,6.587,4.879H762.243v4.88H315.386Z" transform="translate(-297.187 -221.017)" fill="#d3d9e0"/><rect width="29.618" height="420.324" transform="translate(71.516 426.435) rotate(180)" fill="#d3d9e0"/><path d="M329.342,264.049h-8.4V684.375H350.56s-21.218-65.66-21.218-84.122Z" transform="translate(-279.042 -257.939)" fill="#d3d9e0"/><path d="M311.121,395.655H506.1l-31.488-27.81c-3.768-3.332-9.617-5.282-15.817-5.282H331.042c-11,0-19.921,6.033-19.921,13.474Z" transform="translate(-311.121 63.873)" fill="#d3d9e0"/><path d="M326.667,272.294H354.11c3.934,0,7.155-2.176,7.155-4.838h0c0-2.662-3.221-4.838-7.155-4.838H326.667c-3.934,0-7.151,2.176-7.151,4.838h0C319.516,270.118,322.733,272.294,326.667,272.294Z" transform="translate(-283.697 -262.617)" fill="#d3d9e0"/><g transform="translate(18.884 61.653)"><rect width="6.57" height="15.45" transform="translate(328.265 17.891) rotate(180)" fill="#d3d9e0"/><path d="M430.094,340.7q-1.082-1.549-2.035-3.255c-8.5,8.559-23.219,17.574-47.518,17.574-.277,0-.559,0-.841,0-41.374-.354-64.154-17.139-64.154-47.262,0-26.786,22.1-30.549,23.014-30.682l0,4.672c-.708.115-16.6,2.97-16.6,26.01,0,19.354,10.031,42.509,57.809,42.918.26,0,.512,0,.768,0,23.544,0,37.205-9.357,44.971-18.684a53.1,53.1,0,0,1-3.482-19.025c0-10.3,3.1-22.323,11.866-22.323a7.883,7.883,0,0,1,6.1,2.743c4.949,5.858,4.151,23.936-7.62,39.147,3.844,8.849,11.755,18.662,27.951,18.662,16.589,0,29.709-10.479,37.854-22.511-3.789-8.269-5.683-16.956-5.683-23.68a20.843,20.843,0,0,1,1.928-9.707,9.1,9.1,0,0,1,8.35-4.924c3.832,0,6.98,1.489,8.862,4.194a14.906,14.906,0,0,1,2.236,8.619c0,7.207-3.1,16.768-8.858,25.745,6,12.1,16.1,22.264,28.77,22.264,13.385,0,24.687-10.85,31.821-23.245a74.079,74.079,0,0,1-3.759-21.453c0-10.159,3.3-15.309,9.8-15.309a7.8,7.8,0,0,1,7.019,3.772,14.281,14.281,0,0,1,1.519,7.121c0,7.215-2.79,17.016-7.9,26.253a69.909,69.909,0,0,0,3.072,7.552c4.531,9.442,10.441,15.309,15.424,15.309,8.055,0,13.06-11.379,13.06-29.7,0-24.2,14.69-35.482,24.619-35.482,9.779,0,14.37,6.02,15.343,8.947h-6.571c-.068-.2-1.626-4.6-8.772-4.6-5.18,0-18.2,9.259-18.2,31.134,0,15.535-3.379,34.044-19.482,34.044-10.087,0-17.707-9.4-22.584-20.668-8.081,11.456-19.9,20.668-34.419,20.668-14.92,0-25.809-9.544-32.648-21.176-9.254,11.682-23.232,21.176-40.811,21.176C447.319,355.535,436.861,350.4,430.094,340.7Zm-.077-15.121,0,.021a49.038,49.038,0,0,0,3.716-7.667c4.753-12.582,2.347-22.131.243-22.95C430.683,295.768,425.921,309.425,430.017,325.575Zm70.451-28.809A18.186,18.186,0,0,0,498.92,305a52.454,52.454,0,0,0,3.187,17.041c3.482-6.81,5.342-13.6,5.342-18.859a12.015,12.015,0,0,0-1.621-6.767,3.4,3.4,0,0,0-3.051-1.7C501.646,294.714,500.725,296.284,500.469,296.766Zm67.806,9.728A61.774,61.774,0,0,0,569.8,319.38c2.56-6.289,3.972-12.442,3.972-17.3a11.233,11.233,0,0,0-1.079-5.547c-.345-.593-.768-1-1.037-1C570.749,295.529,568.274,298.127,568.274,306.494Z" transform="translate(-315.547 -277.067)" fill="#d3d9e0"/><rect width="6.57" height="15.45" transform="translate(259.39 17.891) rotate(180)" fill="#d3d9e0"/><rect width="6.57" height="15.45" transform="translate(190.516 17.891) rotate(180)" fill="#d3d9e0"/><rect width="6.57" height="15.45" transform="translate(121.641 17.891) rotate(180)" fill="#d3d9e0"/></g><rect width="6.57" height="251.494" transform="translate(340.579 79.544)" fill="#d3d9e0"/></g></g><g transform="translate(40.064 370.844)"><path d="M678.437,412.2c0,16.858-70.362,30.524-157.154,30.524S364.129,429.055,364.129,412.2s70.357-27.23,157.154-27.23S678.437,395.336,678.437,412.2Z" transform="translate(1149.424 28.836)" fill="#d3d5d3" style="mix-blend-mode:multiply;isolation:isolate"/><g transform="translate(1537.61 23.548)"><g transform="translate(89.267 90.646)"><path d="M465.737,336.041c3.174-9.783-17.54-14.754-27.772-16.67s-40.593-4.463-40.593-4.463l-2.658,10.978s24.939,12.51,52.864,19.277C450.445,345.858,462.507,345.995,465.737,336.041Z" transform="translate(-377.542 -314.221)" fill="#ffa47c"/><path d="M411.923,315.5l-15.1-.755s-5.5,6.554-5.982,8.286.324,9.587.38,10.726.866,2.547,1.408,2.411,1.178-4.493,5.991-5.956,8.9-2.112,11.469-3.853C415.806,322.5,411.923,315.5,411.923,315.5Z" transform="translate(-390.689 -314.747)" fill="#9a9393"/><g transform="translate(1.936 4.159)"><path d="M391.852,315.722l.243,21.124,3.042-.034-.013-1.037a1.689,1.689,0,0,1-.717-1.028c-.29-.841.678-2.342.67-3.055s-.154-13.483-.162-14.255S393.926,315.7,391.852,315.722Z" transform="translate(-388.827 -315.722)" fill="#1c5c92"/><path d="M391.143,317.505c.013.776.158,13.542.166,14.255s1.011,2.193.738,3.038a1.691,1.691,0,0,1-.7,1.045l.013,1.037,3.046-.034-.243-21.124C392.094,315.743,391.139,316.729,391.143,317.505Z" transform="translate(-391.143 -315.721)" fill="#1c5c92"/><rect width="0.669" height="19.14" transform="translate(3.253 21.125) rotate(-0.73)" fill="#596273"/><rect width="0.67" height="19.14" transform="translate(2.601 21.131) rotate(-0.62)" fill="#7e908d"/><path d="M392.011,329.7l.8-.01.525-3.869-1.39-1.577Z" transform="translate(-388.509 -287.888)" fill="#596273"/><path d="M392.244,329.706l.8-.009-.063-5.455-1.353,1.606Z" transform="translate(-389.546 -287.888)" fill="#7e908d"/><path d="M392.708,316.07a.524.524,0,0,0-.521.529l.149,13.137a.525.525,0,0,0,1.05-.013l-.154-13.137A.517.517,0,0,0,392.708,316.07Z" transform="translate(-387.729 -314.584)" fill="#00233f"/><path d="M392.251,316.075a.523.523,0,0,0-.516.529l.149,13.137a.523.523,0,0,0,1.045-.013l-.149-13.137A.518.518,0,0,0,392.251,316.075Z" transform="translate(-389.209 -314.568)" fill="#00233f"/><path d="M391.786,316.08a.521.521,0,0,0-.516.529l.149,13.141a.523.523,0,0,0,1.045-.013l-.149-13.141A.524.524,0,0,0,391.786,316.08Z" transform="translate(-390.728 -314.552)" fill="#00233f"/></g><path d="M401.38,316.257s-7.027,2.679-7.134,4.087-2.086,9.156-2.33,10.022-.58,2.027,2.039.661,3.2-5.03,4.211-5.137,5.38,1.3,8.666-.738a6.25,6.25,0,0,0,3.153-6.31C409.794,317.606,403.445,314.017,401.38,316.257Z" transform="translate(-387.211 -312.166)" fill="#9a9393"/><path d="M395.288,327.171l16.087,6.816,4.616-17.2-19.879-1.87Z" transform="translate(-375.667 -314.183)" fill="#9a9393"/></g><g transform="translate(10.93 238.458)"><rect width="21.593" height="19.46" transform="translate(22.283 4.799)" fill="#535353"/><rect width="21.593" height="19.46" transform="translate(104.885 4.799)" fill="#535353"/><rect width="121.541" height="8.975" transform="translate(8.886 24.259)" fill="#a39d9d"/><path d="M375.411,357.18v67h38.723l71.425-67Z" transform="translate(-362.26 -323.946)" fill="#303030"/><rect width="55.074" height="58.313" transform="translate(13.151 119.429)" fill="#535353"/><rect width="33.07" height="19.194" transform="translate(13.151 100.235)" fill="#a39d9d"/><path d="M377.552,350.515h21.593v7.432l-14.19,12.028h-7.4Z" transform="translate(-355.269 -345.716)" fill="#424242"/><path d="M396.912,350.515H418.5v7.432l-14.19,12.028h-7.4Z" transform="translate(-292.026 -345.716)" fill="#424242"/><path d="M485.559,357.18H375.411v10.536h98.916Z" transform="translate(-362.26 -323.946)" fill="#1c1c1c"/><path d="M408.481,372.883h-33.07v19.194h7.3Z" transform="translate(-362.26 -272.648)" fill="#7f7f7f"/><rect width="101.174" height="4.435" transform="translate(0 177.742)" fill="#191919"/><rect width="131.02" height="4.799" transform="translate(8.127)" fill="#191919"/></g><g transform="translate(0 127.56)"><path d="M491.579,354.745H382.4a6.994,6.994,0,0,1-6.993-6.993H498.572A6.994,6.994,0,0,1,491.579,354.745Z" transform="translate(-351.331 -243.844)" fill="#303030"/><path d="M1.823,0H132a1.823,1.823,0,0,1,1.823,1.823V83.1a0,0,0,0,1,0,0H0a0,0,0,0,1,0,0V1.823A1.823,1.823,0,0,1,1.823,0Z" transform="translate(16.457 20.805)" fill="#b8b3b3"/><path d="M0,0H138.2a0,0,0,0,1,0,0V50.709a0,0,0,0,1,0,0H1.555A1.555,1.555,0,0,1,0,49.154V0A0,0,0,0,1,0,0Z" transform="translate(12.085 53.197)" fill="#303030"/><rect width="45.141" height="16.361" transform="translate(88.32 4.443)" fill="#9a9393"/><path d="M399.588,334.263H415.05A1.959,1.959,0,0,0,417,332.309h0a1.959,1.959,0,0,0-1.954-1.954H399.588a1.959,1.959,0,0,0-1.954,1.954h0A1.959,1.959,0,0,0,399.588,334.263Z" transform="translate(-278.736 -300.675)" fill="#535353"/><path d="M393.3,334.263h15.458a1.963,1.963,0,0,0,1.959-1.954h0a1.963,1.963,0,0,0-1.959-1.954H393.3a1.963,1.963,0,0,0-1.958,1.954h0A1.963,1.963,0,0,0,393.3,334.263Z" transform="translate(-299.297 -300.675)" fill="#535353"/><path d="M387.005,334.263h15.458a1.963,1.963,0,0,0,1.959-1.954h0a1.963,1.963,0,0,0-1.959-1.954H387.005a1.963,1.963,0,0,0-1.958,1.954h0A1.963,1.963,0,0,0,387.005,334.263Z" transform="translate(-319.854 -300.675)" fill="#535353"/><path d="M380.708,334.263H396.17a1.959,1.959,0,0,0,1.954-1.954h0a1.959,1.959,0,0,0-1.954-1.954H380.708a1.959,1.959,0,0,0-1.954,1.954h0A1.959,1.959,0,0,0,380.708,334.263Z" transform="translate(-340.411 -300.675)" fill="#535353"/><rect width="133.824" height="10.188" transform="translate(16.457 43.009)" fill="#a39d9d"/><path d="M0,0H138.2a0,0,0,0,1,0,0V16.2a0,0,0,0,1,0,0H1.6A1.6,1.6,0,0,1,0,14.6V0A0,0,0,0,1,0,0Z" transform="translate(12.085 87.706)" fill="#191919"/><rect width="138.196" height="7.351" transform="translate(12.085 55.004)" fill="#535353"/><path d="M410.887,343.469a9.662,9.662,0,1,1-9.66-9.664A9.662,9.662,0,0,1,410.887,343.469Z" transform="translate(-298.568 -289.405)" fill="#a39d9d"/><circle cx="9.664" cy="9.664" r="9.664" transform="translate(118.719 44.398)" fill="#a39d9d"/><path d="M405.93,405.418h0a7.957,7.957,0,0,0,7.932-7.932V342.08a7.958,7.958,0,0,0-7.932-7.932h0A7.958,7.958,0,0,0,398,342.08v55.407A7.957,7.957,0,0,0,405.93,405.418Z" transform="translate(-277.547 -288.284)" fill="#b8b3b3"/><path d="M399.9,405.418h0a7.954,7.954,0,0,0,7.927-7.932V342.08a7.954,7.954,0,0,0-7.927-7.932h0a7.955,7.955,0,0,0-7.932,7.932v55.407A7.955,7.955,0,0,0,399.9,405.418Z" transform="translate(-297.242 -288.284)" fill="#b8b3b3"/><path d="M398.828,343.469a9.662,9.662,0,1,1-9.664-9.664A9.663,9.663,0,0,1,398.828,343.469Z" transform="translate(-337.961 -289.405)" fill="#a39d9d"/><path d="M404.861,343.469A9.664,9.664,0,1,1,395.2,333.8,9.663,9.663,0,0,1,404.861,343.469Z" transform="translate(-318.266 -289.405)" fill="#a39d9d"/><path d="M1.859,0H14A1.858,1.858,0,0,1,15.86,1.858v67.55A1.858,1.858,0,0,1,14,71.267H1.859A1.859,1.859,0,0,1,0,69.409V1.859A1.859,1.859,0,0,1,1.859,0Z" transform="translate(69.001 45.864)" fill="#b8b3b3"/><path d="M387.837,405.418h0a7.955,7.955,0,0,0,7.932-7.932V342.08a7.955,7.955,0,0,0-7.932-7.932h0a7.954,7.954,0,0,0-7.928,7.932v55.407A7.954,7.954,0,0,0,387.837,405.418Z" transform="translate(-336.635 -288.284)" fill="#b8b3b3"/><rect width="127.427" height="1.466" transform="translate(19.816 25.592)" fill="#a39d9d"/><path d="M0,0H57.8a0,0,0,0,1,0,0V7.372a1.692,1.692,0,0,1-1.692,1.692H1.692A1.692,1.692,0,0,1,0,7.372V0A0,0,0,0,1,0,0Z" transform="translate(82.321)" fill="#535353"/><rect width="7.617" height="59.893" rx="0.818" transform="translate(100.506 52.707)" fill="#d7d4d4"/><rect width="7.617" height="59.893" rx="0.818" transform="translate(126.612 52.707)" fill="#d7d4d4"/><rect width="7.616" height="59.893" rx="0.818" transform="translate(75.753 52.707)" fill="#d7d4d4"/><rect width="7.617" height="59.893" rx="0.818" transform="translate(49.534 52.707)" fill="#d7d4d4"/><rect width="9.775" height="42.298" transform="translate(0 59.537)" fill="#191919"/><rect width="2.31" height="32.226" transform="translate(9.774 65.046)" fill="#191919"/></g><g transform="translate(109.002)"><path d="M471.39,313.365c7.1,6.374,3.934,14.144-2.786,20.715s-48.021,33.011-51.029,32.657-11.964-10.808-10.223-14.81,33.412-31.838,39.876-36.28S463.07,305.894,471.39,313.365Z" transform="translate(-356.722 -240.814)" fill="#ffa47c"/><path d="M454.591,310.369c-3.6-.521-18.517,2.509-23.454,7.356-6.993,6.865-21.363,18.9-21.363,18.9a33.586,33.586,0,0,0,7.736,13.487C424.422,357.4,431.35,359,431.35,359s29.713-25.451,32.508-32.93C464.69,323.835,464.567,311.82,454.591,310.369Z" transform="translate(-348.082 -238.591)" fill="#9a9393"/><path d="M460.491,301.857s1.186,27.494,2.782,28.83c4.975,4.147,23.031,7.65,26.411,14.865,4.1,8.747-18.372,48.009-21.312,60.988s3.136,33.084,5.1,45.815-38.084,28.122-39.552,28.122-14.353-12.049-16.8-16.209-.021-36.8-.021-45.12-1.924-37.5-2.3-39.4c-2.5-12.74.785-22.793,1.276-25.485s.346-7.2,1.7-8.917c2.692-3.43,17.668-7.953,17.911-9.664s2.287-25.583,2.287-25.583Z" transform="translate(-334.713 -266.208)" fill="#ffbd95"/><path d="M463.638,308.614,439.5,323.01l-3.456-9.4s-15.855,6.238-17.911,9.664-3.034,10.859-3.712,13.619-1.079,15.5,0,26.547c.631,6.464.465,15.006,1.446,26.014.836,9.425-.2,32.879-.2,32.879s8.994.376,22.942-.3c16.141-.781,32.44-3.251,33.165-3.844,3.115-2.552-1.182-27.567-.619-30.328s20.42-50.663,20.74-56.939S489,320.505,484.25,318.141,463.638,308.614,463.638,308.614Z" transform="translate(-335.079 -244.136)" fill="#b8b3b3"/><path d="M469.68,310.579s15.723,8.717.115,20.766c-6.741,5.2-38.963,13.265-45.026,15.113-21.675,6.6,11.712,54.66,14.276,58.291s2.517,8.585,2.517,8.585l16.486-1.092c6.472,1.28.994-31.019,3.456-37.717s18.189-44.971,18.189-50.022A14.243,14.243,0,0,0,469.68,310.579Z" transform="translate(-322.876 -237.717)" fill="#a39d9d"/><path d="M419.305,312.918l24.414-8.76L444.3,318.6l-7.531,4.564Z" transform="translate(-316.946 -258.689)" fill="#ffa47c"/><path d="M419.526,302.851c5.312-6.409,22.511-13.986,32.9-3.418s8.149,22.72,4.39,30.566c-2.927,6.123-6.093,9.724-12.779,13.905-1.365.853-14.221,4.941-16.973,4.407-1.886-.367-5.073-13.291-5.594-13.167a2.4,2.4,0,0,1-2.308-1.51c-.324-1.536.055-11.191-.461-12.134S413.442,310.194,419.526,302.851Z" transform="translate(-326.252 -291.309)" fill="#ffbd95"/><path d="M416.51,309.966s9.25-7.027,23.3,2.633c3.025,2.078-.614,13.193.184,14.025.862.892,8.858-8.986,8.661-7.753-1.958,12.552,2.906,18.65,4.015,18.573,3.371-.235,11.315-18.658,4.322-31.714s-21.926-12.407-25.353-11.187S417.671,298.011,416.51,309.966Z" transform="translate(-326.077 -292.08)" fill="#8d3b26"/><path d="M423.01,304.391c-.644,4-.482,9.25,1.681,9.583s4.442-2.645,5.09-6.647-.585-7.509-2.748-7.838S423.658,300.389,423.01,304.391Z" transform="translate(-305.928 -274.114)" fill="#ffbd95"/><g transform="translate(60.459 387.201)"><rect width="15.614" height="2.914" transform="translate(56.143 23.62) rotate(180)" fill="#191919"/><path d="M465.016,384.435c2.044,2.863,3.426,8.409,3.631,10.961.243,3.076-1.592,9.562-3.614,9.562a150.364,150.364,0,0,0-19.051,1.062c-6.089.819-8.363,4.322-23.936,4.284-4.544-.009-12.561-.282-12.561-2.142,0-8.064,14.938-5.2,19.678-9.57,11.994-11.051,19.981-13.722,19.981-13.722S464.593,383.846,465.016,384.435Z" transform="translate(-409.485 -384.252)" fill="#191919"/></g><g transform="translate(81.502 391.004)"><path d="M424.041,394.1l15.582-.977-.193-3-15.583.977Z" transform="translate(-383.612 -368.9)" fill="#191919"/><path d="M468.262,385.248c2.227,2.825,3.977,8.452,4.348,11.068.448,3.157-.951,9.954-2.97,10.082a145.255,145.255,0,0,0-18.94,2.283c-6.024,1.229-8.064,4.979-23.6,5.914-4.536.273-12.681.5-12.681-1.425,0-9.664,14.562-6.289,19-11.089,11.234-12.139,19.029-15.39,19.029-15.39S467.8,384.668,468.262,385.248Z" transform="translate(-414.417 -385.143)" fill="#191919"/></g><path d="M443.1,334.818s20.527,19.157,21.478,28.22-7.808,38.067-10.906,60.881-5.018,27.426-4.241,32.815,7.543,27.213,6.677,41.732-3.78,52.489-3.78,52.489a40.407,40.407,0,0,1-11.768,2.667c-7.479.721-12.672-5.717-12.672-5.717s-6.016-84.834-6.967-93.781c-.614-5.794-5.35-45.76-6.8-78.34-.469-10.483.725-34.718.721-39.053Z" transform="translate(-334.249 -158.536)" fill="#00233f"/><path d="M467,334.362s5.167,13.551,5.018,24.794c-.124,9.114-2.743,25.835-5.841,48.649s-3.4,44.019-2.624,49.408,7.2,28.2,7.112,42.743c-.1,17.088,1.357,56.427,1.357,56.427a74.6,74.6,0,0,1-14.251,2.944c-7.48.721-17.459-1.472-17.459-1.472s-7.1-90.291-10.466-98.65c-5.385-13.346-6.2-55.381-9.924-84.045-1.506-11.563-4.292-37.372-4.292-37.372Z" transform="translate(-328.962 -160.026)" fill="#002d56"/><path d="M425.5,362.154l10.573-37.043s3.644,32.986-.9,36.395S425.5,362.154,425.5,362.154Z" transform="translate(-296.697 -190.245)" fill="#002d56"/><path d="M420.861,312.022l-1.072,5.714,12.721-7.507Z" transform="translate(-315.366 -238.861)" fill="#a39d9d"/><path d="M446.428,313.59l-4.526-6.046L420.04,320.793l3.458,7.8Z" transform="translate(-314.545 -247.631)" fill="#d7d4d4"/><path d="M423.663,317.42l-2-7.1L418.6,312.71Z" transform="translate(-319.241 -238.545)" fill="#a39d9d"/><path d="M423.914,313.826l-5.2,5.94-.8-6.353,4.348-4.16Z" transform="translate(-321.49 -242.046)" fill="#cfcccc"/><path d="M417.359,389.869c-7.757-8.017-2.061-72.5-2.061-72.5l33.28,2.547,7.053,67.981S425.214,397.98,417.359,389.869Z" transform="translate(-336.621 -215.533)" fill="#002d56"/><path d="M413.951,334.746l1.015,8.712a318.38,318.38,0,0,0,39.889,0c19.371-1.442,18.961-2.778,18.961-2.778l-.9-7.04s-5.91.572-19.469,1.105C440.272,335.262,413.951,334.746,413.951,334.746Z" transform="translate(-334.437 -162.381)" fill="#004877"/><path d="M423.208,334.246l4.651,28.791,5.147-29.243Z" transform="translate(-304.197 -161.883)" fill="#00233f"/><path d="M427.165,345.959c.815-6.3,10.607-33.016,28.8-32.606a40.97,40.97,0,0,1,6.042,1.084l-10.449-4.843s-4.117-1.617-12.331,4.446-18.044,20.245-19.26,31.369S426.192,353.511,427.165,345.959Z" transform="translate(-315.207 -241.574)" fill="#002d56"/><path d="M413.783,339.554s1.591-22.963,9.523-26.509a44.789,44.789,0,0,0,4.915-2.466s-5.9,11.046-7.219,20.237-1.728,15.727-4.74,15.642S413.783,339.554,413.783,339.554Z" transform="translate(-335.105 -237.717)" fill="#002d56"/><path d="M484.688,316.019c6.66,6.827,3.2,14.255-3.691,20.233s-54.694,33.2-57.626,32.623-11.213-11.563-9.322-15.386,40.324-33.148,46.861-37.039S476.889,308.019,484.688,316.019Z" transform="translate(-335.022 -234.406)" fill="#ffbd95"/><path d="M470.294,311.874c-3.448-1.156-16.141-.333-21.858,3.558-8.1,5.517-30.392,18.432-30.392,18.432a33.558,33.558,0,0,0,5.218,14.648c5.5,8.4,12.041,11.208,12.041,11.208s33.758-19.767,37.841-26.633C474.36,331.036,479.855,315.07,470.294,311.874Z" transform="translate(-321.066 -235.061)" fill="#cfcccc"/><path d="M472.98,332.4c1.621,10.248-19.831,11.776-30.345,12s-41.208-2.248-41.208-2.248l-.922-11.354s26.863-8.328,55.8-10.457C459.271,320.12,471.328,321.972,472.98,332.4Z" transform="translate(-378.357 -205.892)" fill="#ffbd95"/><g transform="translate(0 122.227)"><path d="M396.112,329.962l0-.009a2.021,2.021,0,0,1,1.429-2.458l8.32-2.223a2.013,2.013,0,0,1,2.466,1.429l0,.013a2.025,2.025,0,0,1-1.429,2.458l-8.32,2.223A2.017,2.017,0,0,1,396.112,329.962Z" transform="translate(-392.941 -312.169)" fill="#b8b3b3"/><path d="M395.8,329.13v-.009a2.019,2.019,0,0,1,1.425-2.458l8.32-2.223a2.011,2.011,0,0,1,2.466,1.429l0,.013a2.021,2.021,0,0,1-1.429,2.458l-8.32,2.223A2.016,2.016,0,0,1,395.8,329.13Z" transform="translate(-393.947 -314.887)" fill="#b8b3b3"/><path d="M395.552,328.305l0-.013a2.021,2.021,0,0,1,1.429-2.458l8.32-2.223a2.019,2.019,0,0,1,2.466,1.434l0,.009a2.025,2.025,0,0,1-1.429,2.458l-8.32,2.227A2.017,2.017,0,0,1,395.552,328.305Z" transform="translate(-394.77 -317.591)" fill="#b8b3b3"/><path d="M395.384,327.481l0-.009a2.025,2.025,0,0,1,1.429-2.458l8.32-2.223a2.013,2.013,0,0,1,2.466,1.434l0,.008a2.021,2.021,0,0,1-1.429,2.458l-8.32,2.223A2.016,2.016,0,0,1,395.384,327.481Z" transform="translate(-395.315 -320.274)" fill="#b8b3b3"/><path d="M424.853,324.036s-14.08-2.223-16.832-1.843-12.54,5.129-12.54,5.129,4.117,2.654,4.42,5.129.495,8.93.495,8.93,9.446-.009,13.615-1.4a43.992,43.992,0,0,0,7.953-3.725Z" transform="translate(-394.772 -322.149)" fill="#b8b3b3"/></g><path d="M401,324.762l16.311-3.1.706,17.4-15.572-.938Z" transform="translate(-376.739 -201.502)" fill="#b8b3b3"/><path d="M459.412,309.741s-4.455-18.479-23.97-16.013-19.2,22.737-19.2,22.737a137.449,137.449,0,0,0,25.242-.981C455.982,313.654,459.412,309.741,459.412,309.741Z" transform="translate(-326.94 -293.502)" fill="#002d56"/><path d="M458.46,298.648s-37.594,10.539-38.157,10.266a41.443,41.443,0,0,0-4.25-2.326c-1.156-.388-2.637.939-3.051.269s13.952-7.906,13.952-7.906,8.141.862,12.156,1.173S458.238,297.363,458.46,298.648Z" transform="translate(-337.563 -277.723)" fill="#004877"/></g></g><ellipse cx="590.738" cy="52.444" rx="590.738" ry="52.444" transform="translate(347.536 437.844)" fill="#d3d5d3" style="mix-blend-mode:multiply;isolation:isolate"/><path d="M537.5,451.077c0,21.832-77.8,39.526-173.768,39.526s-173.764-17.694-173.764-39.526,77.8-35.256,173.764-35.256S537.5,429.248,537.5,451.077Z" transform="translate(580.482 129.622)" fill="#d3d5d3" style="mix-blend-mode:multiply;isolation:isolate"/><path d="M356.927,398.195c0,12.693-77.8,22.98-173.769,22.98S9.39,410.888,9.39,398.195s77.8-22.976,173.769-22.976S356.927,385.506,356.927,398.195Z" transform="translate(-9.39 -3.011)" fill="#d3d5d3" style="mix-blend-mode:multiply;isolation:isolate"/><g transform="translate(368.964 2.3)"><g transform="translate(0 5.971)"><path d="M111.478,312.693c-8.137,7.309-4.51,16.218,3.191,23.748s58.453,39.936,62.822,41.843c3.187,1.391,12.463-16.209,9.869-20.489-2.884-4.77-40.772-37.393-48.184-42.483S121.014,304.13,111.478,312.693Z" transform="translate(-59.924 -229.516)" fill="#ffa47c"/><path d="M118.553,309.26c4.126-.6,21.231,2.871,26.889,8.431,8.017,7.872,24.495,21.67,24.495,21.67a38.468,38.468,0,0,1-8.875,15.458c-7.919,8.358-15.863,10.193-15.863,10.193s-34.065-29.175-37.269-37.751C106.973,324.7,107.118,310.924,118.553,309.26Z" transform="translate(-57.646 -226.966)" fill="#9a9393"/><path d="M131.028,299.5s-1.361,31.522-3.2,33.05c-5.7,4.753-26.4,8.772-30.276,17.045-4.7,10.027,21.065,55.04,24.435,69.918s-3.6,37.926-5.845,52.527,43.661,32.243,45.346,32.243,16.452-13.815,19.26-18.586.026-42.185.026-51.729,2.206-42.987,2.637-45.171c2.867-14.609-.9-26.133-1.459-29.218s-.4-8.256-1.95-10.227c-3.089-3.93-20.254-9.114-20.535-11.08s-2.62-29.325-2.62-29.325Z" transform="translate(-92.21 -258.627)" fill="#ffbd95"/><path d="M129.035,307.247l27.678,16.508,3.959-10.786s18.18,7.151,20.535,11.08,3.482,12.45,4.258,15.616,1.233,17.771,0,30.434c-.725,7.411-.533,17.2-1.66,29.824-.96,10.808.23,37.7.23,37.7s-10.313.431-26.3-.346c-18.509-.9-37.193-3.725-38.025-4.407-3.571-2.923,1.357-31.6.708-34.769S97.01,340.019,96.643,332.821s3.315-11.938,8.764-14.652S129.035,307.247,129.035,307.247Z" transform="translate(-93.413 -233.324)" fill="#b8b3b3"/><path d="M108.1,309.5s-18.027,9.992-.132,23.808c7.727,5.965,44.668,15.206,51.622,17.323,24.849,7.565-13.431,62.673-16.367,66.833s-2.893,9.839-2.893,9.839l-18.9-1.25c-7.42,1.468-1.139-35.563-3.964-43.243s-20.851-51.558-20.851-57.348A16.33,16.33,0,0,1,108.1,309.5Z" transform="translate(-93.393 -225.964)" fill="#a39d9d"/><path d="M133.2,312.182l-27.99-10.043-.67,16.558,8.635,5.233Z" transform="translate(-67.534 -250.007)" fill="#ffa47c"/><path d="M149.191,300.64c-6.089-7.347-25.8-16.034-37.722-3.921s-9.344,26.048-5.035,35.051c3.358,7.014,6.989,11.14,14.652,15.936,1.562.977,16.3,5.662,19.46,5.052,2.159-.418,5.815-15.236,6.408-15.091a2.761,2.761,0,0,0,2.645-1.732c.375-1.762-.06-12.83.533-13.909S156.167,309.063,149.191,300.64Z" transform="translate(-73.112 -287.406)" fill="#ffbd95"/><path d="M152.449,308.8s-10.6-8.06-26.718,3.017c-3.469,2.385.7,15.125-.213,16.081-.986,1.024-10.15-10.3-9.928-8.892,2.244,14.4-3.328,21.384-4.6,21.295-3.866-.269-12.971-21.393-4.954-36.361s25.139-14.221,29.069-12.821S151.118,295.092,152.449,308.8Z" transform="translate(-73.111 -288.288)" fill="#8d3b26"/><path d="M113.394,302.4c.738,4.587.55,10.607-1.929,10.987s-5.09-3.034-5.832-7.62.666-8.61,3.149-8.986S112.651,297.817,113.394,302.4Z" transform="translate(-64.609 -267.692)" fill="#ffbd95"/><g transform="translate(45.851 443.915)"><rect width="17.901" height="3.34" transform="translate(3.485 23.739)" fill="#191919"/><path d="M110.8,394.173c-2.342,3.285-3.93,9.638-4.164,12.565-.277,3.529,1.826,10.965,4.143,10.965a171.764,171.764,0,0,1,21.841,1.216c6.98.939,9.587,4.954,27.439,4.911,5.21-.013,14.4-.324,14.4-2.458,0-9.246-17.122-5.961-22.558-10.97-13.747-12.672-22.908-15.735-22.908-15.735S111.283,393.5,110.8,394.173Z" transform="translate(-106.612 -393.964)" fill="#191919"/></g><g transform="translate(22.761 448.276)"><path d="M119.674,405.248l-17.865-1.12.222-3.442,17.865,1.12Z" transform="translate(-99.21 -376.363)" fill="#191919"/><path d="M106.284,395.106c-2.556,3.238-4.561,9.69-4.988,12.689-.512,3.618,1.092,11.413,3.409,11.558a166.842,166.842,0,0,1,21.713,2.615c6.9,1.408,9.242,5.709,27.059,6.78,5.2.316,14.537.572,14.537-1.63,0-11.085-16.7-7.215-21.786-12.715-12.881-13.918-21.815-17.647-21.815-17.647S106.813,394.44,106.284,395.106Z" transform="translate(-101.201 -394.986)" fill="#191919"/></g><path d="M128.428,337.29s-23.535,21.961-24.623,32.35,8.947,43.644,12.5,69.8,5.751,31.445,4.864,37.619-8.648,31.2-7.659,47.846,4.331,60.177,4.331,60.177a46.294,46.294,0,0,0,13.5,3.055c8.576.828,14.528-6.554,14.528-6.554s6.9-97.258,7.987-107.52c.7-6.639,6.135-52.459,7.8-89.809.533-12.019-.832-39.8-.828-44.774Z" transform="translate(-70.201 -135.183)" fill="#00233f"/><path d="M106.072,336.766s-5.922,15.539-5.747,28.429c.141,10.445,3.145,29.619,6.694,55.774s3.9,50.466,3.008,56.64-8.252,32.333-8.154,49.007c.115,19.593-1.553,64.691-1.553,64.691a85.611,85.611,0,0,0,16.333,3.375c8.576.823,20.015-1.69,20.015-1.69s8.137-103.513,12.006-113.1c6.17-15.3,7.1-63.5,11.375-96.354,1.724-13.257,4.92-42.846,4.92-42.846Z" transform="translate(-81.313 -136.895)" fill="#002d56"/><path d="M114.64,368.635,102.523,326.16s-4.177,37.815,1.028,41.728S114.64,368.635,114.64,368.635Z" transform="translate(-79.299 -171.541)" fill="#002d56"/><path d="M120.638,311.155l1.23,6.551L107.284,309.1Z" transform="translate(-58.568 -227.275)" fill="#a39d9d"/><path d="M103.323,312.952l5.189-6.932,25.064,15.189-3.964,8.938Z" transform="translate(-71.506 -237.331)" fill="#d7d4d4"/><path d="M110.7,317.343l2.292-8.134,3.51,2.734Z" transform="translate(-47.403 -226.914)" fill="#a39d9d"/><path d="M111.239,313.223l5.967,6.811.911-7.284-4.985-4.769Z" transform="translate(-45.648 -230.927)" fill="#cfcccc"/><path d="M150.656,400.4c8.9-9.186,2.368-83.119,2.368-83.119l-38.157,2.923-8.085,77.935S141.653,409.705,150.656,400.4Z" transform="translate(-60.207 -200.533)" fill="#002d56"/><path d="M169.943,337.2l-1.165,9.993a365.692,365.692,0,0,1-45.734,0c-22.2-1.655-21.734-3.187-21.734-3.187l1.028-8.068s6.775.653,22.323,1.263C139.765,337.8,169.943,337.2,169.943,337.2Z" transform="translate(-78.086 -139.593)" fill="#004877"/><path d="M115.382,336.633l-5.332,33.008-5.9-33.527Z" transform="translate(-68.808 -139.023)" fill="#00233f"/><path d="M139.263,350.061c-.934-7.223-12.16-37.85-33.024-37.38a47.38,47.38,0,0,0-6.925,1.242l11.977-5.551s4.723-1.856,14.14,5.094,20.685,23.211,22.076,35.964S140.376,358.722,139.263,350.061Z" transform="translate(-84.602 -230.386)" fill="#002d56"/><path d="M130.3,342.716s-1.826-26.321-10.923-30.387a52.517,52.517,0,0,1-5.636-2.829s6.767,12.668,8.282,23.2,1.98,18.031,5.431,17.929S130.3,342.716,130.3,342.716Z" transform="translate(-37.481 -225.964)" fill="#002d56"/><path d="M106.294,312.256c-10.569,2.79-11.541,12.139-8.286,22.071s34.223,64.879,37.453,66.035,17.839-4.766,18.231-9.638-20.13-56.354-24.264-64.038S118.681,308.983,106.294,312.256Z" transform="translate(-94.258 -219.043)" fill="#ffbd95"/><path d="M111.166,310.527c4.066.9,16.068,9.182,19.4,16.38,4.715,10.2,19.029,36.036,19.029,36.036a38.524,38.524,0,0,1-13.76,11.328c-10.368,5.022-18.449,3.93-18.449,3.93s-21.555-39.33-21.521-48.486C95.875,326.98,99.877,308.044,111.166,310.527Z" transform="translate(-95.866 -223.339)" fill="#b8b3b3"/><path d="M105.827,336.9c-5.5,10.547,17.647,20.207,29.184,24.367s46.332,12.915,46.332,12.915l5.124-12.015s-26.658-19.076-57.852-32.175C125.415,328.647,111.425,326.164,105.827,336.9Z" transform="translate(-66.04 -163.08)" fill="#ffbd95"/><path d="M141.845,343.109l-16.6-9.306-7.1,18.658,17.27,4.65Z" transform="translate(-23.107 -146.573)" fill="#b8b3b3"/><path d="M122.17,329.515c-4.578,8.956,18,19.371,29.5,23.01s46.05,10.859,46.05,10.859L202.4,351.19a508.732,508.732,0,0,0-59.571-29.982C138.281,319.318,128.937,316.288,122.17,329.515Z" transform="translate(-11.911 -193.277)" fill="#ffa47c"/><g transform="translate(181.244 154.482)"><path d="M153.994,338.892l0-.013a2.311,2.311,0,0,0-.772-3.162l-8.431-5.141a2.315,2.315,0,0,0-3.179.781l-.009.009a2.321,2.321,0,0,0,.776,3.166l8.431,5.137A2.32,2.32,0,0,0,153.994,338.892Z" transform="translate(-128.761 -312.69)" fill="#a39d9d"/><path d="M154.6,338.073l0-.009a2.317,2.317,0,0,0-.777-3.166l-8.431-5.137a2.311,2.311,0,0,0-3.174.781l-.009.009a2.321,2.321,0,0,0,.777,3.166l8.431,5.137A2.317,2.317,0,0,0,154.6,338.073Z" transform="translate(-126.771 -315.353)" fill="#a39d9d"/><path d="M.543,0H4.09a.539.539,0,0,1,.539.539V13.947a.543.543,0,0,1-.543.543H.539A.539.539,0,0,1,0,13.951V.543A.543.543,0,0,1,.543,0Z" transform="translate(16.57 13.627) rotate(-58.671)" fill="#a39d9d"/><path d="M155.6,336.4l0-.009a2.319,2.319,0,0,0-.772-3.166l-8.435-5.137a2.306,2.306,0,0,0-3.174.776l-.009.009a2.32,2.32,0,0,0,.777,3.166l8.431,5.137A2.312,2.312,0,0,0,155.6,336.4Z" transform="translate(-123.528 -320.836)" fill="#a39d9d"/><path d="M139.126,326.128s16.2,2.108,19.11,3.418,12.13,9.694,12.13,9.694-5.389,1.587-6.519,4.211-3.435,9.664-3.435,9.664-10.385-3.064-14.519-5.944a50.15,50.15,0,0,1-7.548-6.669Z" transform="translate(-138.345 -326.128)" fill="#a39d9d"/></g><path d="M157.963,333l-16.938-8.682-6.4,18.909,17.431,4Z" transform="translate(30.735 -177.571)" fill="#a39d9d"/><path d="M103.165,308.54s5.1-21.184,27.482-18.359,22,26.069,22,26.069a157.493,157.493,0,0,1-28.936-1.126C107.1,313.028,103.165,308.54,103.165,308.54Z" transform="translate(-72.023 -289.921)" fill="#002d56"/><path d="M106.275,295.821s43.1,12.083,43.742,11.767a48.055,48.055,0,0,1,4.877-2.662c1.327-.444,3.025,1.075,3.494.307s-16-9.062-16-9.062-9.331.986-13.935,1.344S106.531,294.349,106.275,295.821Z" transform="translate(-61.863 -271.83)" fill="#004877"/><path d="M121.543,363.084s7.219,6.281,12.885,2.368,8.555-11.354,9.536-13.107c4.045-7.228,12.9-11.409,15.979-15.407s1.365-6.037-.1-4.945c-8.243,6.127-14.682,7.492-18.061,10.62s-18.266,11.426-18.266,11.426Z" transform="translate(-11.988 -153.442)" fill="#b8b3b3"/></g><g transform="translate(100.569 0)"><path d="M197.808,317.588h32.813v38.665l-71.229,21.932Z" transform="translate(11.084 -193.571)" fill="#807d79"/><rect width="11.666" height="136.84" transform="translate(240.903 49.767)" fill="#00233f"/><path d="M178.963,337.893h-4l2.612-37.707h1.39Z" transform="translate(61.941 -250.419)" fill="#65635e"/><rect width="117.786" height="6.412" transform="translate(229.378 117.592) rotate(-86.711)" fill="#807d79"/><path d="M175.478,405.836l-2.194-.137,6.956-117.132,2.2.137Z" transform="translate(56.463 -288.375)" fill="url(#a)" style="mix-blend-mode:soft-light;isolation:isolate"/><path d="M196.76,317.588h20.612v38.665l-53.924,16.6Z" transform="translate(24.332 -193.571)" fill="#002d56"/><path d="M137,652.184H303.763V326.651L137,378Z" transform="translate(-62.059 -163.968)" fill="#002d56"/><path d="M303.76,317.589V568.8L137,631.343v-27.4s85-20.5,115.763-89.306S291.75,317.589,291.75,317.589Z" transform="translate(-62.057 -193.569)" fill="#00233f"/><g transform="translate(27.539 174.946)"><circle cx="93.631" cy="93.631" r="93.631" transform="translate(6.367 7.485)" fill="#191919"/><circle cx="70.709" cy="70.709" r="70.709" transform="translate(0 99.997) rotate(-45)"/><circle cx="65.213" cy="65.213" r="65.213" transform="matrix(0.558, -0.83, 0.83, 0.558, 9.501, 118.92)" fill="#46676c"/><g transform="translate(33.484 34.565)"><path d="M200.252,337.643a66.513,66.513,0,1,0,66.513,66.513A66.511,66.511,0,0,0,200.252,337.643Zm0,115.964a50.293,50.293,0,1,1,50.3-50.3A50.294,50.294,0,0,1,200.252,453.607Z" transform="translate(-133.739 -337.57)" fill="url(#b)"/><path d="M197.7,337.626c14.31.162,8.576,56.606,8.576,56.606s49.843-24.008,54.327-10.9c4.527,13.239-50.121,24.9-50.121,24.9s37.18,40.687,26.091,49.049c-11.157,8.418-40.247-38.818-40.247-38.818s-26.5,46.63-37.5,38.818c-10.974-7.8,24.235-48.085,24.235-48.085s-52.749-12.932-48.264-25.865c4.437-12.783,53.295,9.468,53.295,9.468S183.7,337.473,197.7,337.626Z" transform="translate(-131.182 -337.626)" fill="url(#c)"/><path d="M189.518,370.66A22.763,22.763,0,1,1,166.756,347.9,22.765,22.765,0,0,1,189.518,370.66Z" transform="translate(-100.243 -304.074)" fill="url(#d)"/><g transform="translate(47.189 49.899)"><path d="M153.8,353.123a3.8,3.8,0,1,1-3.8-3.8A3.8,3.8,0,0,1,153.8,353.123Z" transform="translate(-140.229 -349.321)" fill="#46676c"/><path d="M158.4,353.123a3.8,3.8,0,1,1-3.8-3.8A3.8,3.8,0,0,1,158.4,353.123Z" transform="translate(-125.202 -349.321)" fill="#46676c"/><path d="M159.678,357.122a3.8,3.8,0,1,1-3.8-3.8A3.8,3.8,0,0,1,159.678,357.122Z" transform="translate(-121.031 -336.258)" fill="#46676c"/><path d="M152.4,357.122a3.8,3.8,0,1,1-3.8-3.8A3.8,3.8,0,0,1,152.4,357.122Z" transform="translate(-144.799 -336.258)" fill="#46676c"/><path d="M155.9,359.83a3.8,3.8,0,1,1-3.8-3.8A3.8,3.8,0,0,1,155.9,359.83Z" transform="translate(-133.362 -327.395)" fill="#46676c"/></g></g></g><path d="M323.508,573.658A127.306,127.306,0,1,0,132.622,447.13H119.941A139.883,139.883,0,1,1,323.508,588.049Z" transform="translate(-117.79 -172.185)" fill="#3d3d3d"/><path d="M128.941,506.924H341.557V371.118L128.941,472.954Z" transform="translate(-88.388 -18.707)" fill="#004877"/><rect width="278.516" height="8.963" transform="translate(278.516 280.543) rotate(180)" fill="#cfcccc"/><rect width="130.068" height="15.105" transform="translate(274.284 313.422) rotate(-168.708)" fill="#9a9393"/><path d="M149.777,354.343l22.156-1.8-2.958,14.813-19.785-10.208Z" transform="translate(-22.241 -79.4)" fill="#191919"/><path d="M168.38,361.493a10.79,10.79,0,1,1-10.79-10.79A10.789,10.789,0,0,1,168.38,361.493Z" transform="translate(-30.054 -85.397)" fill="#191919"/><path d="M202.369,368.6a10.788,10.788,0,1,1-10.786-10.79A10.788,10.788,0,0,1,202.369,368.6Z" transform="translate(80.993 -62.167)" fill="#191919"/><rect width="17.955" height="19.875" transform="translate(17.955 286.886) rotate(180)" fill="#191919"/><rect width="17.569" height="37.794" transform="translate(283.365 290.616) rotate(171.931)" fill="#191919"/></g></g><g transform="translate(1081.757 20.66)"><g transform="translate(121.976)"><path d="M378.948,328.531c-5.811-10.931-26.7,3.238-36.919,10.492s-41.28,31.736-41.28,31.736l8.474,8.849s32.973-9.6,62.426-27.729C378.572,347.616,384.861,339.655,378.948,328.531Z" transform="translate(-261.354 -189.246)" fill="#ffa47c"/><path d="M386.854,316.466c9.25,6.81,6.37,16.491-.913,25.148s-53.679,45.163-57.327,45.09-15.59-11.55-13.973-16.55,36.309-42.048,43.533-48.124S376.017,308.492,386.854,316.466Z" transform="translate(-216.46 -226.922)" fill="#ffa47c"/><path d="M360.717,311.777c-4.373-.2-8.939,7.723-14.285,14.106-7.578,9.045-29.158,31.317-29.158,31.317a40.372,40.372,0,0,0,10.846,15.249c9.131,7.932,17.621,9.037,17.621,9.037s32.623-33.963,35.1-43.251C381.577,335.457,372.835,312.349,360.717,311.777Z" transform="translate(-207.369 -230.928)" fill="#9a9393"/><path d="M346.755,299.816s16.747,27.716,18.334,29.653c5.9,7.224,9.864,5.969,17.348,11.964,9.075,7.27,30.426,46.234,40.512,71.765,5.884,14.895,13.752,50.415,12.612,65.882-1.519,20.676-35.038,25.609-36.625,26.389s-14.468-9.259-19.328-12.454-2.47-37.939-6.895-46.929-32.491-35.994-33.907-37.854c-9.476-12.437-11.268-25.037-12.173-28.207s-3.452-7.957-2.906-10.534c1.088-5.133,14.856-17.98,14.208-19.959s-11.128-28.843-11.128-28.843Z" transform="translate(-186.533 -269.988)" fill="#ffbd95"/><path d="M365.06,306.766l-22.494,27.81-4.659-7.748S324.1,342,323.7,346.787s2.492,13.342,3.23,16.683,7.074,17.314,14.11,28.672c4.117,6.648,15.424,13,22.336,24.376,5.918,9.736,3.857,26.074,3.857,26.074a97.045,97.045,0,0,1,31.079-.017c19.985,3.37,36.181-4.254,36.651-5.278,2.005-4.412-12.408-51.921-13.265-55.2s-19.712-43.631-23.987-49.873c-6.2-9.054-13.722-18.432-23.957-21.632C367.654,308.682,365.06,306.766,365.06,306.766Z" transform="translate(-186.504 -247.285)" fill="#b8b3b3"/><path d="M343.395,307.274s11.089,13.18.636,34.492c-4.514,9.2-2.3,20.109-7.872,25.327-19.9,18.645,22.7,72.794,27.4,75.349s19.759-.29,19.759-.29l28.023-6.515c7.667-2.057-12.8-48.657-13.7-57.208s-19.268-40.371-22.229-45.679C361.571,307.944,343.395,307.274,343.395,307.274Z" transform="translate(-162.88 -245.625)" fill="#a39d9d"/><path d="M325.454,324.617l21.713-22.439,8.308,15.289-5.708,8.933Z" transform="translate(-180.647 -262.273)" fill="#ffa47c"/><g transform="translate(116.724 2.108)"><path d="M319.99,312.259c3.588-9.353,20.284-24.623,36.207-16.58s18.052,22.771,16.789,33.173c-.981,8.111-3.2,13.436-9.216,20.779-1.229,1.5-14.315,11.115-17.66,11.567-2.291.312-10.91-13.2-11.452-12.86a2.889,2.889,0,0,1-3.213-.832c-.964-1.626-4.254-12.783-5.205-13.662S315.881,322.982,319.99,312.259Z" transform="translate(-318.595 -293)" fill="#ffbd95"/><path d="M319.469,320.912s7.842-11.58,27.593-5.978c4.25,1.2,4.382,15.279,5.619,15.923,1.323.687,6.635-13.662,6.891-12.181,2.6,15.07,10.5,20.151,11.733,19.635,3.755-1.566,5.713-25.643-7.292-37.837s-29.79-5.7-33.229-2.982S316.188,306.831,319.469,320.912Z" transform="translate(-318.872 -293.319)" fill="#8d3b26"/><path d="M327.471,306.193c.806,4.808,3.017,10.735,5.611,10.278s4.045-4.727,3.243-9.54-3.558-8.341-6.152-7.885S326.669,301.38,327.471,306.193Z" transform="translate(-291.704 -274.739)" fill="#ffbd95"/></g><g transform="translate(227.388 438.102)"><rect width="18.796" height="3.507" transform="translate(63.683 26.009) rotate(158.537)"/><path d="M397.481,395.525c3.55,2.308,7.544,7.91,8.9,10.684,1.625,3.336,2.428,11.413.162,12.305a181.081,181.081,0,0,0-20.872,9.574c-6.46,3.605-2.257,6.332-19.716,13.15-5.094,1.988-19.87,2.261-20.689.179-3.554-9.037,14.9-7.258,18.291-14.238C372.116,409.516,379.889,403,379.889,403S396.751,395.052,397.481,395.525Z" transform="translate(-344.809 -395.505)"/></g><g transform="translate(164.946 460.236)"><path d="M341.606,410.242l18.786.569.1-3.621-18.786-.568Z" transform="translate(-292.83 -381.324)" fill="#191919"/><path d="M397.83,401.035c2.355,3.631,3.827,10.573,3.981,13.751.183,3.832-2.253,11.823-4.689,11.75a175.291,175.291,0,0,0-22.955.623c-7.356.8-10.219,5.069-28.954,4.454-5.466-.179-15.249-.819-15.036-3.123,1.08-11.584,18.155-5.914,24.017-11.17C369.013,404.026,378.719,401,378.719,401S397.343,400.288,397.83,401.035Z" transform="translate(-330.174 -400.693)" fill="#191919"/></g><path d="M365.119,338.8s29.589,16.337,33.357,26.641,4.736,41,7.817,68.54,4.194,35.951,6.677,42.009,16.23,32.623,19.482,49.83,15.624,60.54,15.624,60.54-11.153,4.851-19.673,7.889-18.5-2.219-18.5-2.219-31.923-97.267-35.661-107.439c-2.419-6.583-19.678-51.848-30.933-89.464-3.622-12.1-9.344-40.747-10.62-45.8Z" transform="translate(-157.003 -142.653)" fill="#00233f"/><path d="M397.586,339.261s5.056,16.712,3.917,30.2c-.922,10.931-5.487,30.788-11.145,57.92s-7.812,52.574-7.343,59.106,6.255,34.475,4.915,51.93c-1.57,20.514-3.162,67.874-3.162,67.874a89.732,89.732,0,0,1-17.357,2.325c-9.046.231-20.838-3.247-20.838-3.247s-.862-109.022-4.2-119.351c-5.333-16.482-2.739-67.029-4.783-101.764-.823-14.012-1.98-45.235-1.98-45.235Z" transform="translate(-147.478 -141.928)" fill="#002d56"/><path d="M350.688,384.23l-4.152-60.279s10.266,24.192,15.108,48.29c.4,2.005,1.993,7.479-1.412,8.917A74.3,74.3,0,0,1,350.688,384.23Z" transform="translate(-111.776 -191.147)" fill="#002d56"/><path d="M330.286,318.062l-2.194,6.168,13.822-14.3Z" transform="translate(-172.029 -236.938)" fill="#a39d9d"/><path d="M332.649,319.217l-4.66-7.75-1.293,4.515Z" transform="translate(-176.587 -231.925)" fill="#a39d9d"/><path d="M330.676,314.348l-1.067,7.571-3.523-4.257,3.063-6.723Z" transform="translate(-178.58 -233.653)" fill="#cfcccc"/><path d="M356,403.669c-3.546-.67-1.566-12.412-5.269-19.994-10.074-20.616-25.344-49.8-25.344-49.8l37.3-14.942,45.828,82.355S386.331,409.382,356,403.669Z" transform="translate(-180.856 -207.526)" fill="#002d56"/><path d="M332.565,343.49l.58,10.7s29.624,2.048,52.565-2.483,22.255-6.067,22.255-6.067l-2.091-8.277s-6.985,1.532-23.113,4.134C367.095,344.019,332.565,343.49,332.565,343.49Z" transform="translate(-157.418 -147.347)" fill="#004877"/><path d="M344.874,339.945l6.166,42.693,5.261-44.921Z" transform="translate(-117.208 -146.178)" fill="#00233f"/><path d="M341.21,357.728c-2.475-7.236-2.9-49.425,23.77-43.272l-8.64-6.174s-10.436-3.272-19.093,11.49a48.054,48.054,0,0,0-4.1,41.186C337.745,373.617,344.171,366.4,341.21,357.728Z" transform="translate(-164.86 -243.343)" fill="#002d56"/><path d="M330.007,352.277s-10.487-25.647-3.8-33.7a53.891,53.891,0,0,0,4-5.273s-.5,15.07,2.957,25.694,6.5,17.907,3.2,19.413S330.007,352.277,330.007,352.277Z" transform="translate(-185.473 -225.924)" fill="#002d56"/><path d="M370.085,312.02c11.32,1.911,13.231,11.593,10.773,22.293s-31.6,75.977-34.863,77.5-19.11-3.285-19.985-8.341,17.673-65.724,21.265-74.15S356.824,309.78,370.085,312.02Z" transform="translate(-178.926 -231.077)" fill="#ffbd95"/><path d="M362.359,310.937c-5.7.87-15.927,11.136-18.722,18.978-3.96,11.115-16.465,39.5-16.465,39.5a40.45,40.45,0,0,0,15.471,10.534c11.315,4.262,19.661,2.347,19.661,2.347s16.947-43.183,17.886-52.749C380.834,322.969,376.17,308.83,362.359,310.937Z" transform="translate(-175.035 -234.351)" fill="#cfcccc"/><path d="M399.429,343.623c2.133,12.309-25.109,17.267-37.709,18.5s-49.664,1.139-49.664,1.139l-1.89-11.844s33.114-10.517,67.064-18.308C380.724,332.312,396.131,324.6,399.429,343.623Z" transform="translate(-230.588 -168.459)" fill="#ffbd95"/><g transform="translate(0 179.563)"><path d="M343.1,339.172s.1,9.634-6.857,11.8-15.206-1.109-17.306-1.438c-8.657-1.353-17.374,5.205-22.707,5.154s-5.5-2.833-3.635-3.341c10.479-2.859,15.454-7.928,20.262-8.7s21.427-7.735,21.427-7.735Z" transform="translate(-291.515 -334.91)" fill="#9a9393"/><path d="M322.371,338.159s.03,4.945-7.953,8.064c-4.373,1.707-10.176-.38-14.033.759s-3.157-.93-2.927-1.493,5-1.92,7.04-2.807S313.317,334.465,322.371,338.159Z" transform="translate(-272.758 -327.672)" fill="#9a9393"/></g><path d="M353.279,309.886l-8.1-4.125-16.57,25.931,7.771,8.2Z" transform="translate(-170.35 -250.567)" fill="#d7d4d4"/><path d="M325.65,335.6,308.5,342.045s-2.948,9.946-2.654,12.109,4.988,10.5,5.6,11.742,2.193,2.415,2.731,2-.858-5.564,3.789-9.515,8.87-6.643,10.893-9.822C333.343,341.507,325.65,335.6,325.65,335.6Z" transform="translate(-244.775 -153.087)" fill="#b8b3b3"/><path d="M313.592,339.132s-6.519,6.37-5.956,7.987,2.1,11.187,2.248,12.271.333,2.539,2.586-.247,1.131-7.142,2.2-7.744,6.613-1.152,9.28-5a7.577,7.577,0,0,0,.461-8.542C323.6,336.572,314.808,335.642,313.592,339.132Z" transform="translate(-238.967 -149.496)" fill="#b8b3b3"/><path d="M315.259,355.464l21.181-.186-3.169-21.353-23.01,7.517Z" transform="translate(-230.275 -158.567)" fill="#b8b3b3"/><path d="M329.986,347.933,319.151,332l-18.4,14.386,10.22,8.536Z" transform="translate(-261.354 -164.869)" fill="#9a9393"/><path d="M368.015,306.158s-11.2-20.134-33.2-10.918-15.031,32.8-15.031,32.8a166.463,166.463,0,0,0,29.158-9.348C365.281,311.846,368.015,306.158,368.015,306.158Z" transform="translate(-202.588 -292.825)" fill="#002d56"/><path d="M366.1,298.238s-40.482,24.525-41.229,24.384a51.079,51.079,0,0,0-5.722-1.331c-1.476-.077-2.778,1.95-3.477,1.306s13.73-13.768,13.73-13.768,9.788-1.638,14.579-2.581S365.424,296.808,366.1,298.238Z" transform="translate(-212.673 -275.671)" fill="#004877"/></g><g transform="translate(0 12.884)"><g transform="translate(81.916 186.25)"><g transform="translate(0)"><rect width="62.763" height="173.83" rx="3.225" transform="translate(173.83 0) rotate(90)" fill="#191919"/><rect width="4.5" height="173.83" transform="translate(173.83 29.132) rotate(90)"/><rect width="1.905" height="173.83" transform="translate(173.83 42.033) rotate(90)"/><rect width="1.905" height="173.83" transform="translate(173.83 49.361) rotate(90)"/><rect width="1.904" height="173.83" transform="translate(173.83 11.843) rotate(90)"/><rect width="1.905" height="173.83" transform="translate(173.83 19.171) rotate(90)"/></g><path d="M455.818,389.691a13.572,13.572,0,0,1-2.01.2H307.5a13.806,13.806,0,0,1-13.76-13.764V340.889c0-.461.094-.9.137-1.344A13.772,13.772,0,0,0,282.126,353.1v35.243a13.8,13.8,0,0,0,13.76,13.76H442.194A13.756,13.756,0,0,0,455.818,389.691Z" transform="translate(-282.126 -339.341)" fill="#979797" style="mix-blend-mode:multiply;isolation:isolate"/></g><rect width="116.026" height="8.596" transform="translate(110.818 249.013)" fill="#625757"/><rect width="73.006" height="19.15" transform="translate(132.26 257.609)" fill="#3d3d3d"/><path d="M366.931,356.222H293.925v19.15h73.006l-62.953-5.345v-5.419Z" transform="translate(-161.666 -98.613)" fill="#2c2c2c"/><path d="M539.294,563.232H275.313V526.943L262.927,514.93V360.6H551.679V514.93l-12.386,12.013Z" transform="translate(-262.927 -84.309)" fill="#bd0000"/><rect width="288.753" height="12.016" transform="translate(0 430.62)" fill="#3d3d3d"/><g transform="translate(8.488)"><rect width="91.454" height="14.764" transform="translate(68.889 56.931)" fill="#3d3d3d"/><rect width="38.956" height="281.413" transform="translate(12.265 58.199)" fill="#bd0000"/><rect width="94.86" height="28.276" transform="translate(0 50.744)" fill="#bd0000"/><g transform="translate(135.888)"><rect width="144.985" height="14.764" transform="translate(17.073 150.856) rotate(-90)" fill="#3d3d3d"/><rect width="144.984" height="8.571" transform="translate(20.101 186.219) rotate(-90)" fill="#3d3d3d"/><rect width="28.384" height="68.099" transform="translate(10.263 35.246)" fill="#bd0000"/><path d="M296.765,347.138l20.1-9.99h8.571v9.99Z" transform="translate(-296.765 -160.92)" fill="#3d3d3d"/><rect width="19.853" height="13.768" transform="translate(14.536)" fill="#9a9393"/></g><rect width="10.263" height="26.341" transform="translate(135.888 50.744)" fill="#625757"/><path d="M306.746,314.365l-29.124,10.222V500.308l29.124,11.8H267.791V314.365Z" transform="translate(-255.526 -235.345)" fill="#a10000"/></g><rect width="263.981" height="36.288" transform="translate(12.386 442.634)" fill="#a10000"/><path d="M529.811,399.587H265.83V419.8l263.981-13.947Z" transform="translate(-253.444 43.047)" fill="#740000"/></g></g><g transform="translate(774.575 4.479)"><path d="M212.863,359.352l-14.225,17.72s2.812,12.258,4.407,14.323,11.5,7.753,12.881,8.653,3.746,1.1,4.066.333-4.211-5.252-1.673-12.352,5.389-12.612,5.628-17.229C224.481,360.572,212.863,359.352,212.863,359.352Z" transform="translate(-165.755 -59.322)" fill="#ffbd95"/><path d="M324.483,403.194c8.26-25.263,29.615-68.561,17.161-76.122-16.23-9.852-62.955-15.953-62.955-15.953l0,.8s-47.142,3.874-63.4,13.679c-12.476,7.522,9.148,52.971,17.331,78.255,1.967,6.067,1.711,33.259.917,57.37-.192,5.948-5.065,33.293-4.258,44.6.243,3.375,38.387,24.32,49.088,24.87v-.8c10.7-.516,48.909-21.35,49.161-24.725.836-11.3-3.951-38.66-4.126-44.608C322.674,436.444,322.5,409.252,324.483,403.194Z" transform="translate(-123.766 -216.883)" fill="#ffbd95"/><path d="M244.73,315.342c-8.6,4.177-9.9,19.767-1.446,35.439s15.936,25.429,18.236,29.449c2.376,4.147,14.34,29.2,18.607,35.362s13.572,11.644,20.254,8.038c5.589-3.012,11.8-5.585,7.966-17.933S271.9,302.141,244.73,315.342Z" transform="translate(-38.577 -207.342)" fill="#ffbd95"/><path d="M272.492,331.3c-1.062-4.817-3.7-28.621-3.7-28.621l-15.778-.026v.8l-15.778-.021s-2.709,23.8-3.789,28.608-14.076,12.062-14.076,12.062l33.583.047v-.8l33.579.051S273.555,336.12,272.492,331.3Z" transform="translate(-98.037 -244.526)" fill="#ffbd95"/><path d="M271.438,324.583c-.99-7.292-2.172-17.673-2.534-20.9l-1.015-1.007-14.878-.021v.8l-15.778-.021s-2.709,23.8-3.789,28.608-14.076,12.062-14.076,12.062h1.587c14.993-3.972,29.9-7.932,31.906-8.508,4.194-1.195,18.577-11.012,18.577-11.012Z" transform="translate(-98.037 -244.526)" fill="#ffa47c"/><path d="M241.435,350.538c-19.26-.085-26.765,13.333-26.291,54.519s6.545,85.862,9.212,92.284,29.952,6.6,32.631,2.859,9.493-89.182,9.515-102.553S262.406,350.636,241.435,350.538Z" transform="translate(-111.903 -88.115)" fill="#ffbd95"/><path d="M3.26,0H29.636A3.259,3.259,0,0,1,32.9,3.259V41.672a3.259,3.259,0,0,1-3.259,3.259H3.26A3.26,3.26,0,0,1,0,41.672V3.26A3.26,3.26,0,0,1,3.26,0Z" transform="translate(112.877 396.805) rotate(1.463)" fill="#ffbd95"/><path d="M235.937,386.765c-5.884-.009-20.331,1.916-19.584,40.316s16.981,91.012,16.981,91.012l13.905.021s6.895-71.078,6.946-84.715C254.31,402.372,254.523,386.79,235.937,386.765Z" transform="translate(-107.976 30.227)" fill="#ffbd95"/><path d="M248.918,350.783c19.145-2.069,28,10.5,31.765,51.524s5.542,86.076,3.554,92.74-29.116,9.647-32.166,6.2S230.23,413.52,228.835,400.221,228.067,353.036,248.918,350.783Z" transform="translate(-68.592 -88.014)" fill="#ffbd95"/><path d="M3.256,0H29.647A3.248,3.248,0,0,1,32.9,3.248V41.66a3.271,3.271,0,0,1-3.271,3.271H3.248A3.248,3.248,0,0,1,0,41.683V3.256A3.256,3.256,0,0,1,3.256,0Z" transform="translate(219.707 439.28) rotate(172.63)" fill="#ffbd95"/><path d="M249.892,386.7c5.854-.614,20.42-.184,23.629,38.089s-3.085,92.275-3.085,92.275l-13.828,1.451s-18.611-69.99-20.066-83.55C233.226,404.121,231.409,388.645,249.892,386.7Z" transform="translate(-48.876 29.648)" fill="#ffbd95"/><path d="M249.481,314.738c9.22,2.522,13.376,17.6,7.957,34.564s-10.97,27.934-12.489,32.307c-1.566,4.514-8.7,31.339-11.759,38.187S222,433.744,214.767,431.435c-6.05-1.929-12.629-3.311-11.136-16.158S220.339,306.776,249.481,314.738Z" transform="translate(-150.144 -206.597)" fill="#ffbd95"/><path d="M222.648,348.6s-6.972,33.916-8.073,52.369,7.812,99.127,7.834,108.006-.623,36.16-.1,62.9,7.351,79.4,7.351,79.4l34.236-.8s.218-113.071.247-130.842,4.442-111.373,4.442-111.373l.09-58.167Z" transform="translate(-113.997 -94.455)" fill="#00233f"/><path d="M345.811,327.571c-2.116-3.52-13.483-6.438-23.953-9.7a112.767,112.767,0,0,1-16.666-6.754l-5.816,3.085a41.553,41.553,0,0,1-41.306-.06l-4.984-2.863s-8.273,3.614-17.515,6.46c-10.483,3.23-22.182,5.931-23.983,9.626-1.826,3.75,16.853,75.759,18.953,81.886s-3.362,48.956,1.963,61.773l45.926,1.5v0h.1v0l45.935-1.357c4.215-14.686-.03-56.457,2.086-62.575S349.348,333.451,345.811,327.571Z" transform="translate(-123.855 -216.883)" fill="#cfcccc"/><path d="M272.908,348.374s10.423,33.02,13.419,51.26,5.649,99.4,6.545,108.241,4.339,35.9,6.571,62.558,5.2,79.748,5.2,79.748L270.5,652.912S254.31,540.455,252.454,522.778s-25.323-110.861-25.323-110.861l.226-61.09Z" transform="translate(-72.678 -95.184)" fill="#00233f"/><path d="M227.39,420s-11.7,13.666-11.089,17.276c.354,2.052,5.282,9.5,14.251,10.052,6.814.418,17.933-5.8,19.665-5.973,4.011-.409,4-21.982,4-21.982Z" transform="translate(-108.132 136.743)" fill="#191919"/><path d="M264.654,419.206s13.047,12.39,12.8,16.047c-.136,2.078-4.275,9.992-13.137,11.464-6.733,1.118-18.432-3.921-20.173-3.917-4.036,0-6.242-21.453-6.242-21.453Z" transform="translate(-37.479 136.201)" fill="#191919"/><path d="M254.625,417.528c1.928,12.092,7.33,93.333,7.654,97.945.32,4.5,16.316,129.818,16.849,135.608l11.238-.9s-2.97-53.09-5.2-79.748-5.675-53.726-6.571-62.558-3.554-90-6.545-108.241-13.419-51.26-13.419-51.26L231.5,350.281S252.7,405.441,254.625,417.528Z" transform="translate(-58.406 -95.184)" fill="#002d56"/><path d="M245.389,362.388c-6.349-11.2-23.334-7.424-24.439,5.4-1.135,13.176-1.421,22.293-.269,28.369,2.9,15.275,7.044,89.954,6.49,91.908s-.171,139.1-.171,139.1l.606.363,18.445-.431s.218-113.071.243-130.842,4.45-111.373,4.45-111.373l0-5.082.358-7.33Z" transform="translate(-96.15 -71.071)" fill="#002d56"/><path d="M261,335.6c7.688-1.148,14.622,1.937,18.969,23.283S287.983,431,287.983,431l-12.437,1.86s-18.513-40.307-21.389-51.789S240.87,338.612,261,335.6Z" transform="translate(-1.557 -137.59)" fill="#ffbd95"/><path d="M262.586,355.51s-4.715,11.443-5.146,15.07,1.626,16.717,1.634,19.635c.013,4.86-9.365,15.821-6.123,16.256s16.256-9.711,16.256-9.711,10.146-13.995,9.754-19.75-2.33-16.346-2.33-16.346Z" transform="translate(9.444 -71.873)" fill="#ffbd95"/><path d="M276.229,325.543c-.03,19.9-15.1,39.7-27.861,39.676-12.2-.017-27.772-19.861-27.742-39.761s12.5-36.011,27.857-35.989S276.259,305.643,276.229,325.543Z" transform="translate(-93.927 -287.61)" fill="#ffbd95"/><path d="M224.138,330.869c-1.229-2.168-5.367-11.379-4.459-15.526s5.794-13.171,7.424-15.876,16.077-9.9,18.244-10.078,7.94-.712,12.454.017,12.446,3.81,14.246,7.424,6.272,7.77,7.727,10.658,3.972,10.3,3.61,11.379-2.359,10.1-2.543,10.825a17.65,17.65,0,0,1-1.481,2.773s-7.475-19.017-7.65-20.821-38.08-2.4-40.431-1.143S224.138,330.869,224.138,330.869Z" transform="translate(-97.443 -289.032)" fill="#8d3b26"/><g transform="translate(96.751 284.872)"><path d="M254.446,412.684h-37.1l-1.033-1.768-2.7-1.2,3.656-53.049,34.382-.838Z" transform="translate(-213.607 -355.716)" fill="#1c5c92"/><path d="M250.712,409.8h-37.1l2-54h35.105Z" transform="translate(-213.607 -355.799)" fill="#002d56"/><path d="M215.273,412.684l-1.033-1.768h35.648l-.311-55.091,2.8,56.859Z" transform="translate(-211.538 -355.716)" fill="#004877"/></g><g transform="translate(177.385 281.629)"><path d="M235.256,414.674l36.928-3.614.855-1.86,2.572-1.461-8.806-52.44-34.3,2.514Z" transform="translate(-232.505 -354.194)" fill="#1c5c92"/><path d="M237.98,412.2l36.928-3.614-7.25-53.545-34.938,3.42Z" transform="translate(-231.802 -355.039)" fill="#002d56"/><path d="M272.185,409.135l.855-1.86-35.478,3.472-5.056-54.86,2.751,56.862Z" transform="translate(-232.505 -352.269)" fill="#004877"/></g><path d="M222.555,337.892c-7.744-.687-14.485,2.807-17.549,24.376s-3.691,72.465-3.691,72.465l12.527,1.118s16.073-41.34,18.257-52.975S242.826,339.7,222.555,337.892Z" transform="translate(-157.007 -129.681)" fill="#ffbd95"/><path d="M262.425,434l45.72-1.491-1.116-9.8-8.123-99.8H225.982l-8.47,99.8-1.116,9.8L262.116,434v.01l.155-.005.155.005Z" transform="translate(-107.746 -178.366)" fill="#002d56"/><path d="M239.1,322.91s6.741,78.5,14.959,93.44,53.82,12.471,53.82,12.471l.418,5.188s-22.306,5.308-43.221,5.308-48.725-5.308-48.725-5.308l9.788-111.1Z" transform="translate(-107.899 -178.366)" fill="#00233f"/><path d="M243.834,365.677l6.888-50.01-10.384-4.1-7.784,54.107,4.979,8.354Z" transform="translate(-54.963 -215.407)" fill="#004877"/><path d="M224.5,365.677l-6.887-50.01,10.384-4.1,7.785,54.107-4.98,8.354Z" transform="translate(-103.762 -215.407)" fill="#004877"/><path d="M216.318,356.35l-.188-8.67s24.555,3.912,47.189,3.912,46.767-3.912,46.767-3.912l.512,8.67s-29.15,5.227-47.531,5.227S216.318,356.35,216.318,356.35Z" transform="translate(-108.614 -97.451)" fill="#004877"/><path d="M225.347,326.168a2.8,2.8,0,1,1-2.8-2.8A2.8,2.8,0,0,1,225.347,326.168Z" transform="translate(-96.805 -176.88)" fill="#303030"/><circle cx="2.801" cy="2.801" r="2.801" transform="translate(181.073 146.487)" fill="#303030"/><path d="M240.5,314.374s-11.853,3.443-21.065,25.353-16.017,66.615-16.017,66.615,6.477,5.056,18.543,8.043,17.143,1.779,17.143,1.779l13.2-46.31S255.337,315.163,240.5,314.374Z" transform="translate(-150.147 -206.25)" fill="#cfcccc"/><path d="M246.792,313.91s12.241,1.57,24.73,21.794,29.909,62.746,29.909,62.746-5.538,5.982-16.994,10.8-16.981,4.689-16.981,4.689l-23.748-43.392S232.255,316.982,246.792,313.91Z" transform="translate(-32.528 -207.766)" fill="#cfcccc"/><g transform="translate(42.805 318.01)"><path d="M205.3,364.266s1.63,6.929,2.594,8.452a37.347,37.347,0,0,0,4.053,4.655c1.259,1.344,1.937,4.177,1.626,4.642-.917,1.335-3.123-.286-4.134-1.408a39.7,39.7,0,0,1-4.459-5.517c-1.058-1.856-3.879-6.285-4.011-7.881S205.3,364.266,205.3,364.266Z" transform="translate(-200.963 -361.279)" fill="#ffa47c"/><path d="M204.119,363.8s3.328,5.726,4.6,6.823,2.406.917,4.369,1.54c1.634.516,3.669,1.8,3.819,3.307s-2.445.977-3.84.759a14.047,14.047,0,0,1-6.3-2.7c-1.446-1.37-5.154-4.552-5.7-5.939S204.119,363.8,204.119,363.8Z" transform="translate(-200.822 -362.792)" fill="#ffa47c"/><path d="M203.329,363.566s3.6,4.25,4.813,4.966,2.133.4,3.861.61c1.438.188,3.307.939,3.648,2.168s-1.886,1.186-3.076,1.216a11.792,11.792,0,0,1-5.632-1.284c-1.4-.917-4.945-3-5.6-4.066S203.329,363.566,203.329,363.566Z" transform="translate(-200.076 -363.566)" fill="#ffa47c"/></g><g transform="translate(0 272.117)"><rect width="100.376" height="5.286" transform="translate(18.879 93.806) rotate(-55.997)" fill="#7f7f7f"/><rect width="89.226" height="5.286" transform="translate(13.727 21.744) rotate(36.936)" fill="#7f7f7f"/><path d="M200.079,371.069l-9.148-7.505,6.391-7.8,9.152,7.509a5.043,5.043,0,0,1,.7,7.1h0A5.038,5.038,0,0,1,200.079,371.069Z" transform="translate(-190.931 -343.144)" fill="#7f7f7f"/><path d="M217.388,370.781l9.148,7.509-6.392,7.791-9.152-7.5a5.043,5.043,0,0,1-.7-7.1h0A5.039,5.039,0,0,1,217.388,370.781Z" transform="translate(-131.411 -297.838)" fill="#7f7f7f"/><path d="M208.2,381.9l-6.289,10.023-8.538-5.359,6.289-10.023a5.044,5.044,0,0,1,6.95-1.591h0A5.04,5.04,0,0,1,208.2,381.9Z" transform="translate(-182.964 -283.003)" fill="#7f7f7f"/><path d="M208.608,362.815l6.327-10.005,8.516,5.393-6.327,10a5.04,5.04,0,0,1-6.955,1.562h0A5.035,5.035,0,0,1,208.608,362.815Z" transform="translate(-135.742 -352.81)" fill="#7f7f7f"/></g><path d="M202.925,368.441s-3.076,10.82-1.523,12.147,8.866,10.313,9.664,11.345,1.865,2.432,2.577-1.916-3.059-8.167-2.287-9.485,6.281-5.444,6.792-11.17-2.974-8.388-4.591-9.2S202.131,364.016,202.925,368.441Z" transform="translate(-158.159 -56.976)" fill="#ffbd95"/><g transform="translate(204.351 259.796)"><g transform="translate(0 0)"><rect width="59.375" height="183.021" rx="3.219" transform="translate(0 7.263) rotate(-7.026)" fill="#191919"/><rect width="4.257" height="183.021" transform="translate(27.357 3.891) rotate(-7.023)"/><rect width="1.802" height="183.021" transform="matrix(0.993, -0.122, 0.122, 0.993, 39.477, 2.397)"/><rect width="1.801" height="183.021" transform="matrix(0.992, -0.122, 0.122, 0.992, 46.336, 1.552)"/><rect width="1.802" height="183.021" transform="matrix(0.992, -0.122, 0.122, 0.992, 11.11, 5.894)"/><rect width="1.801" height="183.021" transform="translate(18.009 5.043) rotate(-7.021)"/></g><path d="M269.99,350.293a16.543,16.543,0,0,1,.448,2.082L289.28,505.262c.977,7.906-4.041,15.1-11.145,15.97l-33.092,4.079a11.687,11.687,0,0,1-1.28.013c1.779,6.8,7.782,11.5,14.242,10.709l33.088-4.079c7.108-.875,12.122-8.064,11.149-15.97L283.4,363.093C282.483,355.664,276.586,350.216,269.99,350.293Z" transform="translate(-222.697 -348.714)" fill="#979797" style="mix-blend-mode:multiply;isolation:isolate"/></g></g><g transform="translate(42.664)"><g transform="translate(0 12.553)"><path d="M28.808,336.043c1.536,8.678,9.178,9.988,17.609,7.923S95.748,322.4,96.938,319.86,94.3,305.208,90.3,304.619,49.023,315.3,42.389,318.2,27,325.871,28.808,336.043Z" transform="translate(10.594 -246.264)" fill="#ffa47c"/><path d="M30.079,327.493c1.344-3.076,4.053-10.112,17.212-14.814,8.525-3.047,25.25-7.539,25.25-7.539a31.016,31.016,0,0,1,6.805,12.651c2.351,8.977.222,15.2.222,15.2s-34.462,10.893-41.694,9.434C35.716,341.987,26.35,336.026,30.079,327.493Z" transform="translate(12.697 -244.489)" fill="#9a9393"/><path d="M47.12,298.645s-1.1,25.4-2.573,26.633c-4.6,3.832-21.278,7.07-24.4,13.734-3.785,8.085,16.977,44.356,19.691,56.346s-2.9,30.566-4.706,42.33,35.183,25.984,36.54,25.984S84.931,452.539,87.192,448.7s.021-33.992.021-41.685,1.779-34.641,2.125-36.4c2.308-11.776-.725-21.06-1.178-23.548s-.32-6.652-1.57-8.239c-2.487-3.17-16.32-7.347-16.546-8.93s-2.112-23.633-2.112-23.633Z" transform="translate(-18.419 -265.706)" fill="#ffbd95"/><path d="M45.517,304.887l22.3,13.3,3.2-8.691s14.647,5.764,16.546,8.93,2.8,10.031,3.43,12.582.994,14.319,0,24.525c-.585,5.973-.431,13.867-1.335,24.038-.777,8.708.183,30.374.183,30.374s-8.311.35-21.193-.277c-14.916-.721-29.973-3-30.643-3.55-2.876-2.355,1.092-25.468.572-28.019S19.708,331.3,19.409,325.5s2.675-9.625,7.066-11.81S45.517,304.887,45.517,304.887Z" transform="translate(-19.389 -245.315)" fill="#b8b3b3"/><path d="M28.648,306.7s-14.528,8.055-.107,19.192c6.225,4.8,36,12.254,41.6,13.96,20.028,6.093-10.82,50.5-13.188,53.854a15.352,15.352,0,0,0-2.33,7.932l-15.232-1.007c-5.978,1.182-.917-28.659-3.191-34.85S19.394,324.234,19.394,319.57A13.165,13.165,0,0,1,28.648,306.7Z" transform="translate(-19.374 -239.386)" fill="#a39d9d"/><path d="M48.87,308.864l-22.556-8.093-.539,13.344,6.958,4.216Z" transform="translate(1.468 -258.76)" fill="#ffa47c"/><path d="M61.759,299.565c-4.907-5.922-20.8-12.924-30.4-3.162S23.828,317.4,27.3,324.649c2.709,5.653,5.632,8.981,11.81,12.843,1.259.789,13.133,4.565,15.68,4.07,1.741-.337,4.689-12.275,5.167-12.16a2.226,2.226,0,0,0,2.133-1.4c.3-1.421-.051-10.342.427-11.213S67.382,306.349,61.759,299.565Z" transform="translate(-3.03 -288.898)" fill="#ffbd95"/><path d="M64.384,306.14s-8.546-6.5-21.53,2.428c-2.795,1.924.567,12.19-.175,12.958-.794.828-8.179-8.3-8-7.164,1.809,11.6-2.684,17.233-3.712,17.165-3.11-.218-10.453-17.241-3.989-29.3S47.237,290.758,50.4,291.889,63.309,295.093,64.384,306.14Z" transform="translate(-3.027 -289.61)" fill="#8d3b26"/><path d="M32.91,300.983c.6,3.695.444,8.546-1.553,8.853s-4.1-2.445-4.7-6.14.538-6.938,2.539-7.24S32.313,297.288,32.91,300.983Z" transform="translate(3.825 -273.011)" fill="#ffbd95"/><g transform="translate(34.372 357.738)"><rect width="14.426" height="2.692" transform="translate(2.806 19.131)" fill="#191919"/><path d="M30.819,374.937c-1.89,2.645-3.17,7.77-3.354,10.129-.226,2.842,1.468,8.832,3.337,8.832a138.5,138.5,0,0,1,17.6.981c5.623.759,7.727,3.994,22.114,3.959,4.2-.009,11.605-.26,11.605-1.98,0-7.45-13.8-4.8-18.18-8.841-11.081-10.214-18.462-12.68-18.462-12.68S31.207,374.4,30.819,374.937Z" transform="translate(-27.445 -374.77)" fill="#191919"/></g><g transform="translate(15.763 361.251)"><path d="M37.971,383.863l-14.4-.9.179-2.774,14.4.9Z" transform="translate(-21.481 -360.586)" fill="#191919"/><path d="M27.18,375.69C25.12,378.3,23.5,383.5,23.161,385.918c-.414,2.914.879,9.195,2.748,9.31a134.066,134.066,0,0,1,17.5,2.112c5.564,1.135,7.445,4.6,21.807,5.466,4.19.252,11.712.456,11.712-1.318,0-8.93-13.453-5.811-17.557-10.244C48.992,380.025,41.79,377.022,41.79,377.022S27.6,375.153,27.18,375.69Z" transform="translate(-23.084 -375.593)" fill="#191919"/></g><path d="M45.026,329.1S26.06,346.8,25.181,355.171s7.215,35.17,10.078,56.247,4.634,25.34,3.917,30.319-6.967,25.143-6.17,38.558S36.5,528.79,36.5,528.79a37.367,37.367,0,0,0,10.876,2.462c6.912.666,11.708-5.286,11.708-5.286s5.559-78.374,6.438-86.643c.567-5.35,4.941-42.274,6.281-72.376.431-9.685-.67-32.077-.666-36.083Z" transform="translate(-0.683 -166.23)" fill="#00233f"/><path d="M27.011,328.676s-4.774,12.523-4.634,22.908c.115,8.418,2.534,23.868,5.4,44.945s3.14,40.67,2.423,45.649-6.652,26.052-6.571,39.492c.094,15.787-1.25,52.13-1.25,52.13a68.934,68.934,0,0,0,13.163,2.718c6.912.666,16.128-1.357,16.128-1.357s6.558-83.418,9.673-91.145c4.975-12.331,5.726-51.166,9.169-77.649,1.391-10.684,3.964-34.526,3.964-34.526Z" transform="translate(-9.638 -167.605)" fill="#002d56"/><path d="M33.916,354.356,24.15,320.129s-3.366,30.472.828,33.626S33.916,354.356,33.916,354.356Z" transform="translate(-8.014 -195.525)" fill="#002d56"/><path d="M38.748,308.036l.991,5.279-11.753-6.936Z" transform="translate(8.692 -240.441)" fill="#a39d9d"/><path d="M24.794,309.484l4.182-5.586,20.2,12.24-3.194,7.2Z" transform="translate(-1.734 -248.544)" fill="#d7d4d4"/><path d="M30.74,313.023l1.847-6.555,2.828,2.2Z" transform="translate(17.691 -240.149)" fill="#a39d9d"/><path d="M31.173,309.7l4.809,5.489.734-5.87L32.7,305.478Z" transform="translate(19.105 -243.384)" fill="#cfcccc"/><path d="M62.939,379.959c7.172-7.407,1.907-66.982,1.907-66.982L34.1,315.332l-6.515,62.805S55.686,387.452,62.939,379.959Z" transform="translate(7.37 -218.888)" fill="#002d56"/><path d="M78.48,329.03l-.939,8.051a294.35,294.35,0,0,1-36.855,0c-17.894-1.335-17.515-2.568-17.515-2.568l.828-6.5s5.461.525,17.988,1.02C54.16,329.508,78.48,329.03,78.48,329.03Z" transform="translate(-7.036 -169.78)" fill="#004877"/><path d="M34.512,328.568l-4.3,26.6L25.46,328.151Z" transform="translate(0.441 -169.321)" fill="#00233f"/><path d="M53.755,339.392c-.751-5.824-9.8-30.507-26.611-30.123a38.025,38.025,0,0,0-5.581.994l9.655-4.471s3.8-1.493,11.392,4.109S59.28,328.6,60.4,338.88,54.655,346.368,53.755,339.392Z" transform="translate(-12.289 -242.948)" fill="#002d56"/><path d="M46.53,333.475s-1.468-21.214-8.8-24.491a41.418,41.418,0,0,1-4.54-2.283s5.453,10.21,6.673,18.7,1.6,14.532,4.378,14.447S46.53,333.475,46.53,333.475Z" transform="translate(25.686 -239.386)" fill="#002d56"/><path d="M26.106,309.027c-7.94,3.823-7.283,11.366-3.187,18.731s36.988,46.11,39.718,46.532S76.026,367.8,75.59,363.879,51.057,322.36,46.611,316.916,35.4,304.547,26.106,309.027Z" transform="translate(-17.565 -236.493)" fill="#ffbd95"/><path d="M28.947,306.983c3.354.085,14.118,4.813,17.852,10,5.291,7.351,20.561,25.608,20.561,25.608A31.033,31.033,0,0,1,58.2,353.652c-7.433,5.555-13.995,5.926-13.995,5.926S21.139,331.751,19.769,324.5C19.36,322.335,19.637,306.74,28.947,306.983Z" transform="translate(-18.507 -238.477)" fill="#cfcccc"/><path d="M29.839,325.973c-4.646,8.384,13.5,16.491,22.554,20s36.484,11.072,36.484,11.072l4.39-9.566s-20.689-15.719-45.133-26.709C45.621,319.646,34.571,317.44,29.839,325.973Z" transform="translate(12.302 -197.068)" fill="#ffbd95"/><g transform="translate(97.577 147.222)"><path d="M54.459,336.394l.009-.009A1.869,1.869,0,0,0,54,333.8l-6.519-4.561a1.863,1.863,0,0,0-2.594.465l-.009.008a1.869,1.869,0,0,0,.465,2.586l6.519,4.561A1.867,1.867,0,0,0,54.459,336.394Z" transform="translate(-34.768 -314.08)" fill="#ffbd95"/><path d="M54.99,335.766l0-.009a1.864,1.864,0,0,0-.461-2.586l-6.519-4.557a1.866,1.866,0,0,0-2.594.461l-.009.008a1.869,1.869,0,0,0,.465,2.586l6.519,4.561A1.863,1.863,0,0,0,54.99,335.766Z" transform="translate(-33.034 -316.118)" fill="#ffbd95"/><path d="M55.47,335.13l0-.008a1.872,1.872,0,0,0-.461-2.586l-6.519-4.561a1.868,1.868,0,0,0-2.6.465l0,.008a1.872,1.872,0,0,0,.461,2.586l6.524,4.561A1.863,1.863,0,0,0,55.47,335.13Z" transform="translate(-31.466 -318.209)" fill="#ffbd95"/><path d="M55.874,334.47l0-.008a1.864,1.864,0,0,0-.461-2.586L48.9,327.315a1.863,1.863,0,0,0-2.594.465l-.009.009a1.863,1.863,0,0,0,.465,2.581l6.519,4.561A1.866,1.866,0,0,0,55.874,334.47Z" transform="translate(-30.146 -320.365)" fill="#ffbd95"/><path d="M43.616,325.43s12.924,2.517,15.194,3.721,9.267,8.414,9.267,8.414-4.416,1-5.457,3.051-3.255,7.6-3.255,7.6-8.2-2.991-11.375-5.517a40.541,40.541,0,0,1-5.73-5.747Z" transform="translate(-42.259 -325.43)" fill="#ffbd95"/></g><path d="M42.9,339.336c4.382,8.529,21.21-2.035,29.167-7.612s29.5-24.154,29.5-24.154L96.057,298.6s-24.572,8.444-47.3,22.643C46.419,322.7,38.44,330.662,42.9,339.336Z" transform="translate(53.061 -265.847)" fill="#ffa47c"/><g transform="translate(142.774 22.899)"><path d="M68.02,299.727l0-.008a1.864,1.864,0,0,0-2.406-1.054l-7.415,2.88a1.866,1.866,0,0,0-1.058,2.415l0,.009a1.871,1.871,0,0,0,2.406,1.054l7.415-2.884A1.862,1.862,0,0,0,68.02,299.727Z" transform="translate(-39.276 -288.953)" fill="#ffa47c"/><path d="M67.795,298.938l0-.009a1.864,1.864,0,0,0-2.4-1.054l-7.42,2.88a1.861,1.861,0,0,0-1.054,2.415v.009a1.872,1.872,0,0,0,2.406,1.054l7.415-2.88A1.863,1.863,0,0,0,67.795,298.938Z" transform="translate(-40.006 -291.53)" fill="#ffa47c"/><path d="M67.532,298.184l0-.009a1.86,1.86,0,0,0-2.4-1.054L57.706,300a1.866,1.866,0,0,0-1.058,2.415l0,.009a1.871,1.871,0,0,0,2.406,1.054l7.415-2.88A1.868,1.868,0,0,0,67.532,298.184Z" transform="translate(-40.87 -293.994)" fill="#ffa47c"/><path d="M67.207,297.478l0-.009a1.868,1.868,0,0,0-2.4-1.054l-7.42,2.88a1.862,1.862,0,0,0-1.054,2.415v.009a1.865,1.865,0,0,0,2.406,1.054l7.415-2.88A1.863,1.863,0,0,0,67.207,297.478Z" transform="translate(-41.927 -296.292)" fill="#ffa47c"/><path d="M52.852,309.872s9.284-9.34,11.546-10.556S76.545,296.3,76.545,296.3s-1.626,4.228-.5,6.234,4.506,6.929,4.506,6.929-7.049,5.15-10.918,6.387a40.3,40.3,0,0,1-7.962,1.562Z" transform="translate(-52.852 -296.278)" fill="#ffa47c"/></g><path d="M24.667,305.927s4.113-17.071,22.144-14.792,17.732,21.009,17.732,21.009a126.831,126.831,0,0,1-23.317-.909C27.837,309.545,24.667,305.927,24.667,305.927Z" transform="translate(-2.149 -290.925)" fill="#002d56"/><path d="M27.173,295.679s34.731,9.741,35.251,9.485a38.158,38.158,0,0,1,3.93-2.146c1.067-.358,2.436.866,2.816.247s-12.89-7.3-12.89-7.3-7.522.794-11.23,1.084S27.378,294.493,27.173,295.679Z" transform="translate(6.037 -276.346)" fill="#004877"/></g><g transform="translate(81.792)"><path d="M71.856,371.975c-8.141,0-11.234-7.752-11.733-11.853l2.338-.286c.051.4,1.323,9.775,9.4,9.775,7.876,0,16.38-11.5,16.38-30.08,0-3.656-.073-7.462-.145-11.217-.265-14.187-.495-26.445,2.825-29.828a3.288,3.288,0,0,1,2.372-1.041h29.3a18.51,18.51,0,0,1,18.487,18.488v31.855h-2.364V315.932a16.141,16.141,0,0,0-16.124-16.124h-29.3a.9.9,0,0,0-.687.324c-2.628,2.679-2.372,16.2-2.146,28.139.068,3.772.141,7.59.141,11.26C90.6,357.72,82.361,371.975,71.856,371.975Z" transform="translate(31.883 -257.073)"/><path d="M1.763,0H24.482a0,0,0,0,1,0,0V56.933a0,0,0,0,1,0,0H0a0,0,0,0,1,0,0V1.763A1.763,1.763,0,0,1,1.763,0Z" transform="translate(66.179 111.952)" fill="#9a9393"/><rect width="4.719" height="101.628" transform="translate(90.661)" fill="#3d3d3d"/><rect width="11.356" height="21.891" transform="translate(87.343 49.946)" fill="#9a9393"/><rect width="29.687" height="214.457" transform="translate(66.179 180.86)" fill="#bd0000"/><rect width="14.083" height="326.227" transform="translate(167.222 69.09)" fill="#bd0000"/><rect width="115.876" height="21.548" transform="translate(51.346 162.474)" fill="#bd0000"/><rect width="74.086" height="14.47" transform="translate(73.447 35.477)" fill="#bd0000"/><rect width="47.778" height="14.469" transform="translate(147.521 35.452) rotate(45)" fill="#bd0000"/><rect width="166.947" height="17.03" transform="translate(39.043 382.704)" fill="#bd0000"/><rect width="94.516" height="14.383" transform="translate(80.231 280.117)" fill="#bd0000"/><path d="M81.413,306.741a11.356,11.356,0,1,1-11.358-11.358A11.355,11.355,0,0,1,81.413,306.741Z" transform="translate(27.241 -263.809)" fill="#191919"/><rect width="16.419" height="4.367" transform="translate(85.056 97.262)" fill="#9a9393"/><rect width="23.707" height="2.557" transform="translate(81.321 101.628)" fill="#3d3d3d"/><path d="M95.561,326.221l-29.25,32.3V541.215l17.446,5.077H54.07V326.063Z" transform="translate(12.109 -163.589)" fill="#a10000"/><g transform="translate(0 98.885)"><rect width="47.83" height="132.471" rx="2.458" transform="translate(93.67 0) rotate(44.999)" fill="#191919"/><rect width="3.429" height="132.471" transform="translate(109.373 15.702) rotate(45.005)"/><rect width="1.451" height="132.471" transform="translate(116.321 22.651) rotate(45)"/><rect width="1.451" height="132.471" transform="translate(120.27 26.599) rotate(45)"/><rect width="1.451" height="132.471" transform="translate(100.044 6.374) rotate(44.989)"/><rect width="1.451" height="132.471" transform="matrix(0.707, 0.707, -0.707, 0.707, 104.001, 10.33)"/><path d="M155.936,317.535a10.26,10.26,0,0,1-.973,1.195L76.12,397.573a10.525,10.525,0,0,1-14.831,0L42.3,378.582c-.247-.252-.431-.533-.649-.8a10.492,10.492,0,0,0,.973,13.636l18.991,18.991a10.517,10.517,0,0,0,14.831,0l78.839-78.839A10.488,10.488,0,0,0,155.936,317.535Z" transform="translate(-35.207 -290.331)" fill="#979797" style="mix-blend-mode:multiply;isolation:isolate"/></g><path d="M77.752,307.551V614.64H82.3V305.14Z" transform="translate(89.47 -231.936)" fill="#a10000"/></g></g></g></g></svg>