<svg xmlns="http://www.w3.org/2000/svg" width="163.028" height="163.034" viewBox="0 0 163.028 163.034"><g transform="translate(-878 -1958.098)"><path d="M.661,14.992l10.859,19a2.712,2.712,0,0,0,1.7,1.286l10.131,2.533L58.093,72.559l3.839-3.838L26.642,33.433a2.707,2.707,0,0,0-1.26-.715l-9.734-2.442L6.4,14.088,14.33,6.162l16.194,9.254,2.443,9.734a2.707,2.707,0,0,0,.714,1.262L68.971,61.7l3.838-3.839L38.063,23.116,35.53,12.991a2.719,2.719,0,0,0-1.286-1.7L15.241.434a2.715,2.715,0,0,0-3.257.437L1.126,11.729a2.714,2.714,0,0,0-.465,3.263Zm0,0" transform="translate(877.697 1958.042)" fill="#707070"/><path d="M237.54,177.557l-59.72,59.721-3.839-3.839,59.721-59.72Zm0,0" transform="translate(753.72 1834.083)" fill="#707070"/><path d="M77.225,400.152a2.714,2.714,0,0,0-2.327-1.317H58.611a2.712,2.712,0,0,0-2.326,1.317l-8.144,13.572a2.714,2.714,0,0,0,0,2.8l8.144,13.572a2.714,2.714,0,0,0,2.326,1.317H74.9a2.716,2.716,0,0,0,2.327-1.317l8.143-13.572a2.714,2.714,0,0,0,0-2.8ZM73.363,425.98H60.148l-6.515-10.858,6.515-10.859H73.363l6.515,10.859Zm0,0" transform="translate(843.82 1673.365)" fill="#707070"/><path d="M130.641,65.189a32.479,32.479,0,0,0,31.592-40.468,2.715,2.715,0,0,0-4.554-1.266l-16.907,16.9-13.414-4.47L122.884,22.47l16.907-16.91A2.716,2.716,0,0,0,138.518,1,32.492,32.492,0,0,0,98.049,32.6a31.879,31.879,0,0,0,.66,6.364L39.229,98.44a32.041,32.041,0,0,0-6.363-.66,32.592,32.592,0,1,0,32.591,32.592,31.962,31.962,0,0,0-.66-6.364l14.24-14.24L85.264,116a2.717,2.717,0,0,0,3.841,0l1.358-1.359a3.046,3.046,0,0,1,4.313,4.3l-.006.006L93.413,120.3a2.716,2.716,0,0,0,0,3.84l32.4,32.4a21.92,21.92,0,1,0,31.14-30.859l-.14-.141-32.4-32.4a2.716,2.716,0,0,0-3.84,0L119.215,94.5a3.046,3.046,0,0,1-4.314-4.3s0,0,.006-.006l1.359-1.359a2.716,2.716,0,0,0,0-3.84l-6.228-6.228,14.24-14.24a31.959,31.959,0,0,0,6.363.66Zm10.671,92.344a16.5,16.5,0,0,1-5.776-1.054l21.212-21.213a16.471,16.471,0,0,1-15.435,22.266ZM110.543,86.944a8.476,8.476,0,0,0,11.949,11.934l30.48,30.506c.331.332.64.682.94,1.037L130.69,153.642c-.356-.3-.706-.608-1.038-.94L99.149,122.2A8.477,8.477,0,0,0,87.2,110.263l-4.345-4.345L106.2,82.609ZM121.51,59.627,59.9,121.228a2.72,2.72,0,0,0-.717,2.581,27.341,27.341,0,1,1-19.75-19.751,2.74,2.74,0,0,0,2.581-.716l61.6-61.6a2.714,2.714,0,0,0,.714-2.58A27.028,27.028,0,0,1,132.184,5.482L117.857,19.814a2.714,2.714,0,0,0-.657,2.778l5.431,16.3A2.718,2.718,0,0,0,124.35,40.6l16.3,5.432a2.716,2.716,0,0,0,2.778-.655l14.327-14.327c.032.518.049,1.031.049,1.542a27.02,27.02,0,0,1-33.724,26.315,2.718,2.718,0,0,0-2.581.714h.015Zm0,0" transform="translate(877.726 1958.098)" fill="#707070"/><path d="M413.874,409.77l-3.839,3.839L382.89,386.464l3.838-3.839Zm0,0" transform="translate(604.576 1684.942)" fill="#707070"/></g></svg>